<?xml version="1.0" standalone="no"?>
<!DOCTYPE svg PUBLIC "-//W3C//DTD SVG 20010904//EN"
 "http://www.w3.org/TR/2001/REC-SVG-20010904/DTD/svg10.dtd">
<svg version="1.0" xmlns="http://www.w3.org/2000/svg"
 width="16.000000pt" height="16.000000pt" viewBox="0 0 16.000000 16.000000"
 preserveAspectRatio="xMidYMid meet">
<metadata>
Created by potrace 1.11, written by Peter Selinger 2001-2013
</metadata>
<g transform="translate(0.000000,16.000000) scale(0.006250,-0.006250)"
fill="#000000" stroke="none">
<path d="M655 2553 c-58 -15 -208 -163 -224 -220 -14 -50 -15 -1853 -1 -1903
14 -50 62 -105 116 -130 43 -21 58 -22 295 -22 290 -1 258 18 258 -148 -1 -58
0 -111 0 -117 1 -10 40 -13 161 -13 l160 0 0 139 0 139 219 -1 c284 -1 290 1
398 108 61 61 84 92 92 123 8 28 11 316 9 969 l-3 928 -25 45 c-14 25 -45 58
-70 75 l-45 30 -660 2 c-363 0 -669 -1 -680 -4z"/>
</g>
</svg>
