solid OpenSCAD_Model
  facet normal -1 0 0
    outer loop
      vertex -54.5 -26.5 -2
      vertex -54.5 26.5 20
      vertex -54.5 26.5 -2
    endloop
  endfacet
  facet normal -1 -0 0
    outer loop
      vertex -54.5 26.5 20
      vertex -54.5 -26.5 -2
      vertex -54.5 -26.5 20
    endloop
  endfacet
  facet normal 0 0 1
    outer loop
      vertex 54.5 26.5 20
      vertex 51.75 -1.5 20
      vertex 54.5 -26.5 20
    endloop
  endfacet
  facet normal 0 0 1
    outer loop
      vertex 54.5 26.5 20
      vertex 51.091 0.0909901 20
      vertex 51.75 -1.5 20
    endloop
  endfacet
  facet normal 0 0 1
    outer loop
      vertex 54.5 26.5 20
      vertex 49.5 0.75 20
      vertex 51.091 0.0909901 20
    endloop
  endfacet
  facet normal -0 0 1
    outer loop
      vertex 44.5 23.5 20
      vertex 49.5 0.75 20
      vertex 54.5 26.5 20
    endloop
  endfacet
  facet normal 0 0 1
    outer loop
      vertex 49.5 0.75 20
      vertex 44.5 23.5 20
      vertex 47.909 0.0909901 20
    endloop
  endfacet
  facet normal 0 0 1
    outer loop
      vertex 47.909 0.0909901 20
      vertex 44.5 23.5 20
      vertex 47.25 -1.5 20
    endloop
  endfacet
  facet normal 0 0 1
    outer loop
      vertex 54.5 26.5 20
      vertex -44.5 23.5 20
      vertex 44.5 23.5 20
    endloop
  endfacet
  facet normal 0 0 1
    outer loop
      vertex -44.5 23.5 20
      vertex -47.25 -1.5 20
      vertex -44.5 -23.5 20
    endloop
  endfacet
  facet normal 0 0 1
    outer loop
      vertex -44.5 23.5 20
      vertex -47.909 0.0909901 20
      vertex -47.25 -1.5 20
    endloop
  endfacet
  facet normal 0 0 1
    outer loop
      vertex -44.5 23.5 20
      vertex -49.5 0.75 20
      vertex -47.909 0.0909901 20
    endloop
  endfacet
  facet normal 0 0 1
    outer loop
      vertex -54.5 26.5 20
      vertex -49.5 0.75 20
      vertex -44.5 23.5 20
    endloop
  endfacet
  facet normal 0 0 1
    outer loop
      vertex -49.5 0.75 20
      vertex -54.5 26.5 20
      vertex -51.091 0.0909901 20
    endloop
  endfacet
  facet normal 0 0 1
    outer loop
      vertex -51.091 0.0909901 20
      vertex -54.5 26.5 20
      vertex -51.75 -1.5 20
    endloop
  endfacet
  facet normal -0 0 1
    outer loop
      vertex -54.5 26.5 20
      vertex -44.5 23.5 20
      vertex 54.5 26.5 20
    endloop
  endfacet
  facet normal -0 0 1
    outer loop
      vertex 51.091 -3.09099 20
      vertex 54.5 -26.5 20
      vertex 51.75 -1.5 20
    endloop
  endfacet
  facet normal -0 0 1
    outer loop
      vertex 49.5 -3.75 20
      vertex 54.5 -26.5 20
      vertex 51.091 -3.09099 20
    endloop
  endfacet
  facet normal 0 0 1
    outer loop
      vertex 44.5 -23.5 20
      vertex 49.5 -3.75 20
      vertex 47.909 -3.09099 20
    endloop
  endfacet
  facet normal 0 0 1
    outer loop
      vertex 44.5 -23.5 20
      vertex 47.909 -3.09099 20
      vertex 47.25 -1.5 20
    endloop
  endfacet
  facet normal 0 0 1
    outer loop
      vertex 44.5 -23.5 20
      vertex 47.25 -1.5 20
      vertex 44.5 23.5 20
    endloop
  endfacet
  facet normal 0 0 1
    outer loop
      vertex 49.5 -3.75 20
      vertex 44.5 -23.5 20
      vertex 54.5 -26.5 20
    endloop
  endfacet
  facet normal -0 0 1
    outer loop
      vertex -44.5 -23.5 20
      vertex 54.5 -26.5 20
      vertex 44.5 -23.5 20
    endloop
  endfacet
  facet normal -0 0 1
    outer loop
      vertex -47.909 -3.09099 20
      vertex -44.5 -23.5 20
      vertex -47.25 -1.5 20
    endloop
  endfacet
  facet normal -0 0 1
    outer loop
      vertex -49.5 -3.75 20
      vertex -44.5 -23.5 20
      vertex -47.909 -3.09099 20
    endloop
  endfacet
  facet normal 0 0 1
    outer loop
      vertex -54.5 -26.5 20
      vertex -49.5 -3.75 20
      vertex -51.091 -3.09099 20
    endloop
  endfacet
  facet normal 0 0 1
    outer loop
      vertex -54.5 -26.5 20
      vertex -51.091 -3.09099 20
      vertex -51.75 -1.5 20
    endloop
  endfacet
  facet normal 0 0 1
    outer loop
      vertex -44.5 -23.5 20
      vertex -54.5 -26.5 20
      vertex 54.5 -26.5 20
    endloop
  endfacet
  facet normal 0 0 1
    outer loop
      vertex -49.5 -3.75 20
      vertex -54.5 -26.5 20
      vertex -44.5 -23.5 20
    endloop
  endfacet
  facet normal 0 0 1
    outer loop
      vertex -54.5 -26.5 20
      vertex -51.75 -1.5 20
      vertex -54.5 26.5 20
    endloop
  endfacet
  facet normal 1 -0 0
    outer loop
      vertex -44.5 -23.5 20
      vertex -44.5 23.5 0
      vertex -44.5 23.5 20
    endloop
  endfacet
  facet normal 1 0 0
    outer loop
      vertex -44.5 23.5 0
      vertex -44.5 -23.5 20
      vertex -44.5 -23.5 0
    endloop
  endfacet
  facet normal 0 1 -0
    outer loop
      vertex 54.5 26.5 -2
      vertex -54.5 26.5 20
      vertex 54.5 26.5 20
    endloop
  endfacet
  facet normal 0 1 0
    outer loop
      vertex -54.5 26.5 20
      vertex 54.5 26.5 -2
      vertex -54.5 26.5 -2
    endloop
  endfacet
  facet normal 0 0 -1
    outer loop
      vertex 54.5 -26.5 -2
      vertex 53.5 -1.5 -2
      vertex 54.5 26.5 -2
    endloop
  endfacet
  facet normal 0 0 -1
    outer loop
      vertex 54.5 -26.5 -2
      vertex 53.0418 -3.35889 -2
      vertex 53.5 -1.5 -2
    endloop
  endfacet
  facet normal 0 0 -1
    outer loop
      vertex 54.5 -26.5 -2
      vertex 51.7723 -4.79193 -2
      vertex 53.0418 -3.35889 -2
    endloop
  endfacet
  facet normal 0 0 -1
    outer loop
      vertex 54.5 -26.5 -2
      vertex 49.9821 -5.47083 -2
      vertex 51.7723 -4.79193 -2
    endloop
  endfacet
  facet normal 0 0 -1
    outer loop
      vertex 54.5 -26.5 -2
      vertex 48.0816 -5.24006 -2
      vertex 49.9821 -5.47083 -2
    endloop
  endfacet
  facet normal 0 0 -1
    outer loop
      vertex 54.5 -26.5 -2
      vertex 46.506 -4.15249 -2
      vertex 48.0816 -5.24006 -2
    endloop
  endfacet
  facet normal 0 0 -1
    outer loop
      vertex -45.9582 -3.35889 -2
      vertex 46.506 -4.15249 -2
      vertex 54.5 -26.5 -2
    endloop
  endfacet
  facet normal 0 0 -1
    outer loop
      vertex 45.6162 -2.45726 -2
      vertex -45.5 -1.5 -2
      vertex 45.6162 -0.542738 -2
    endloop
  endfacet
  facet normal 0 0 -1
    outer loop
      vertex 46.506 -4.15249 -2
      vertex -45.9582 -3.35889 -2
      vertex 45.6162 -2.45726 -2
    endloop
  endfacet
  facet normal -0 0 -1
    outer loop
      vertex 45.6162 -2.45726 -2
      vertex -45.9582 -3.35889 -2
      vertex -45.5 -1.5 -2
    endloop
  endfacet
  facet normal 0 0 -1
    outer loop
      vertex -54.5 -26.5 -2
      vertex -45.9582 -3.35889 -2
      vertex 54.5 -26.5 -2
    endloop
  endfacet
  facet normal 0 0 -1
    outer loop
      vertex -45.9582 -3.35889 -2
      vertex -54.5 -26.5 -2
      vertex -47.2277 -4.79193 -2
    endloop
  endfacet
  facet normal 0 0 -1
    outer loop
      vertex -47.2277 -4.79193 -2
      vertex -54.5 -26.5 -2
      vertex -49.0179 -5.47083 -2
    endloop
  endfacet
  facet normal -0 0 -1
    outer loop
      vertex -53.3838 -2.45726 -2
      vertex -54.5 -26.5 -2
      vertex -53.3838 -0.542738 -2
    endloop
  endfacet
  facet normal -0 0 -1
    outer loop
      vertex -52.494 -4.15249 -2
      vertex -54.5 -26.5 -2
      vertex -53.3838 -2.45726 -2
    endloop
  endfacet
  facet normal -0 0 -1
    outer loop
      vertex -50.9184 -5.24006 -2
      vertex -54.5 -26.5 -2
      vertex -52.494 -4.15249 -2
    endloop
  endfacet
  facet normal -0 0 -1
    outer loop
      vertex -49.0179 -5.47083 -2
      vertex -54.5 -26.5 -2
      vertex -50.9184 -5.24006 -2
    endloop
  endfacet
  facet normal 0 0 -1
    outer loop
      vertex 53.0418 0.358892 -2
      vertex 54.5 26.5 -2
      vertex 53.5 -1.5 -2
    endloop
  endfacet
  facet normal 0 0 -1
    outer loop
      vertex 51.7723 1.79193 -2
      vertex 54.5 26.5 -2
      vertex 53.0418 0.358892 -2
    endloop
  endfacet
  facet normal 0 0 -1
    outer loop
      vertex 49.9821 2.47083 -2
      vertex 54.5 26.5 -2
      vertex 51.7723 1.79193 -2
    endloop
  endfacet
  facet normal 0 0 -1
    outer loop
      vertex 48.0816 2.24006 -2
      vertex 54.5 26.5 -2
      vertex 49.9821 2.47083 -2
    endloop
  endfacet
  facet normal 0 0 -1
    outer loop
      vertex 46.506 1.15249 -2
      vertex 54.5 26.5 -2
      vertex 48.0816 2.24006 -2
    endloop
  endfacet
  facet normal 0 0 -1
    outer loop
      vertex -45.9582 0.358892 -2
      vertex 46.506 1.15249 -2
      vertex 45.6162 -0.542738 -2
    endloop
  endfacet
  facet normal 0 0 -1
    outer loop
      vertex -45.9582 0.358892 -2
      vertex 45.6162 -0.542738 -2
      vertex -45.5 -1.5 -2
    endloop
  endfacet
  facet normal -0 0 -1
    outer loop
      vertex 46.506 1.15249 -2
      vertex -45.9582 0.358892 -2
      vertex 54.5 26.5 -2
    endloop
  endfacet
  facet normal 0 0 -1
    outer loop
      vertex -54.5 26.5 -2
      vertex -45.9582 0.358892 -2
      vertex -47.2277 1.79193 -2
    endloop
  endfacet
  facet normal 0 0 -1
    outer loop
      vertex -54.5 26.5 -2
      vertex -47.2277 1.79193 -2
      vertex -49.0179 2.47083 -2
    endloop
  endfacet
  facet normal 0 0 -1
    outer loop
      vertex -54.5 26.5 -2
      vertex -49.0179 2.47083 -2
      vertex -50.9184 2.24006 -2
    endloop
  endfacet
  facet normal 0 0 -1
    outer loop
      vertex -45.9582 0.358892 -2
      vertex -54.5 26.5 -2
      vertex 54.5 26.5 -2
    endloop
  endfacet
  facet normal 0 0 -1
    outer loop
      vertex -52.494 1.15249 -2
      vertex -54.5 26.5 -2
      vertex -50.9184 2.24006 -2
    endloop
  endfacet
  facet normal 0 0 -1
    outer loop
      vertex -53.3838 -0.542738 -2
      vertex -54.5 26.5 -2
      vertex -52.494 1.15249 -2
    endloop
  endfacet
  facet normal 0 0 -1
    outer loop
      vertex -54.5 26.5 -2
      vertex -53.3838 -0.542738 -2
      vertex -54.5 -26.5 -2
    endloop
  endfacet
  facet normal 0 -1 0
    outer loop
      vertex -54.5 -26.5 -2
      vertex 54.5 -26.5 20
      vertex -54.5 -26.5 20
    endloop
  endfacet
  facet normal 0 -1 -0
    outer loop
      vertex 54.5 -26.5 20
      vertex -54.5 -26.5 -2
      vertex 54.5 -26.5 -2
    endloop
  endfacet
  facet normal -1 0 0
    outer loop
      vertex 44.5 -23.5 0
      vertex 44.5 23.5 20
      vertex 44.5 23.5 0
    endloop
  endfacet
  facet normal -1 -0 0
    outer loop
      vertex 44.5 23.5 20
      vertex 44.5 -23.5 0
      vertex 44.5 -23.5 20
    endloop
  endfacet
  facet normal 1 -0 0
    outer loop
      vertex 54.5 -26.5 20
      vertex 54.5 26.5 -2
      vertex 54.5 26.5 20
    endloop
  endfacet
  facet normal 1 0 0
    outer loop
      vertex 54.5 26.5 -2
      vertex 54.5 -26.5 20
      vertex 54.5 -26.5 -2
    endloop
  endfacet
  facet normal -0 0 1
    outer loop
      vertex -44.5 23.5 0
      vertex 44.5 -23.5 0
      vertex 44.5 23.5 0
    endloop
  endfacet
  facet normal 0 0 1
    outer loop
      vertex 44.5 -23.5 0
      vertex -44.5 23.5 0
      vertex -44.5 -23.5 0
    endloop
  endfacet
  facet normal 0 1 -0
    outer loop
      vertex 44.5 -23.5 0
      vertex -44.5 -23.5 20
      vertex 44.5 -23.5 20
    endloop
  endfacet
  facet normal 0 1 0
    outer loop
      vertex -44.5 -23.5 20
      vertex 44.5 -23.5 0
      vertex -44.5 -23.5 0
    endloop
  endfacet
  facet normal 0 -1 0
    outer loop
      vertex -44.5 23.5 0
      vertex 44.5 23.5 20
      vertex -44.5 23.5 20
    endloop
  endfacet
  facet normal 0 -1 -0
    outer loop
      vertex 44.5 23.5 20
      vertex -44.5 23.5 0
      vertex 44.5 23.5 0
    endloop
  endfacet
  facet normal -0.923879 -0.382685 0
    outer loop
      vertex 51.3111 -0.440478 0.826872
      vertex 51.091 0.0909901 20
      vertex 51.091 0.0909901 0.803604
    endloop
  endfacet
  facet normal -0.923881 -0.38268 -1.54093e-07
    outer loop
      vertex 51.3482 -0.529986 0.830791
      vertex 51.091 0.0909901 20
      vertex 51.3111 -0.440478 0.826872
    endloop
  endfacet
  facet normal -0.92388 -0.382682 -9.16927e-08
    outer loop
      vertex 51.387 -0.623528 0.828902
      vertex 51.091 0.0909901 20
      vertex 51.3482 -0.529986 0.830791
    endloop
  endfacet
  facet normal -0.923879 -0.382685 -0
    outer loop
      vertex 51.75 -1.5 20
      vertex 51.387 -0.623528 0.828902
      vertex 51.75 -1.5 0.811202
    endloop
  endfacet
  facet normal -0.923879 -0.382685 3.09601e-08
    outer loop
      vertex 51.387 -0.623528 0.828902
      vertex 51.75 -1.5 20
      vertex 51.091 0.0909901 20
    endloop
  endfacet
  facet normal 0.92387 -0.382706 0
    outer loop
      vertex 47.909 0.0909901 20
      vertex 47.854 -0.0417833 0.81734
      vertex 47.909 0.0909901 0.807665
    endloop
  endfacet
  facet normal 0.92388 -0.382683 -1.80866e-07
    outer loop
      vertex 47.909 0.0909901 20
      vertex 47.4966 -0.904731 0.827822
      vertex 47.854 -0.0417833 0.81734
    endloop
  endfacet
  facet normal 0.923879 -0.382685 -1.15524e-07
    outer loop
      vertex 47.25 -1.5 20
      vertex 47.4966 -0.904731 0.827822
      vertex 47.909 0.0909901 20
    endloop
  endfacet
  facet normal 0.92388 -0.382681 7.1952e-09
    outer loop
      vertex 47.4966 -0.904731 0.827822
      vertex 47.25 -1.5 20
      vertex 47.4584 -0.996799 0.82894
    endloop
  endfacet
  facet normal 0.92388 -0.382681 0
    outer loop
      vertex 47.4584 -0.996799 0.82894
      vertex 47.25 -1.5 20
      vertex 47.25 -1.5 0.803095
    endloop
  endfacet
  facet normal -0.382684 -0.923879 -1.74733e-08
    outer loop
      vertex 50.6188 0.286564 0.82576
      vertex 51.091 0.0909901 20
      vertex 49.5 0.75 20
    endloop
  endfacet
  facet normal -0.382685 -0.923879 7.61051e-09
    outer loop
      vertex 51.091 0.0909901 20
      vertex 50.6188 0.286564 0.82576
      vertex 50.7078 0.249732 0.826121
    endloop
  endfacet
  facet normal -0.382684 -0.923879 4.73208e-09
    outer loop
      vertex 49.5 0.75 20
      vertex 49.7601 0.642256 0.822279
      vertex 50.6188 0.286564 0.82576
    endloop
  endfacet
  facet normal -0.382684 -0.923879 0
    outer loop
      vertex 49.7601 0.642256 0.822279
      vertex 49.5 0.75 20
      vertex 49.5 0.75 0.805129
    endloop
  endfacet
  facet normal -0.382685 -0.923879 -0
    outer loop
      vertex 51.091 0.0909901 20
      vertex 50.7078 0.249732 0.826121
      vertex 51.091 0.0909901 0.803604
    endloop
  endfacet
  facet normal 0.382684 -0.923879 -4.39018e-08
    outer loop
      vertex 47.909 0.0909901 20
      vertex 48.7625 0.444532 0.831708
      vertex 49.5 0.75 20
    endloop
  endfacet
  facet normal 0.382693 -0.923876 4.11586e-07
    outer loop
      vertex 47.909 0.0909901 20
      vertex 48.669 0.405787 0.829073
      vertex 48.7625 0.444532 0.831708
    endloop
  endfacet
  facet normal 0.382684 -0.923879 0
    outer loop
      vertex 48.669 0.405787 0.829073
      vertex 47.909 0.0909901 20
      vertex 47.909 0.0909901 0.807665
    endloop
  endfacet
  facet normal 0.382682 -0.92388 5.1366e-08
    outer loop
      vertex 48.8547 0.482714 0.828386
      vertex 49.5 0.75 20
      vertex 48.7625 0.444532 0.831708
    endloop
  endfacet
  facet normal 0.382683 -0.92388 0
    outer loop
      vertex 49.5 0.75 20
      vertex 48.8547 0.482714 0.828386
      vertex 49.5 0.75 0.805129
    endloop
  endfacet
  facet normal -0.382685 0.923879 2.42978e-08
    outer loop
      vertex 50.6188 -3.28656 0.82576
      vertex 51.091 -3.09099 20
      vertex 50.7078 -3.24973 0.826121
    endloop
  endfacet
  facet normal -0.382684 0.923879 0
    outer loop
      vertex 50.7078 -3.24973 0.826121
      vertex 51.091 -3.09099 20
      vertex 51.091 -3.09099 0.803604
    endloop
  endfacet
  facet normal -0.382684 0.923879 -1.60373e-08
    outer loop
      vertex 51.091 -3.09099 20
      vertex 50.6188 -3.28656 0.82576
      vertex 49.5 -3.75 20
    endloop
  endfacet
  facet normal -0.382684 0.923879 4.29721e-09
    outer loop
      vertex 49.7601 -3.64226 0.822279
      vertex 49.5 -3.75 20
      vertex 50.6188 -3.28656 0.82576
    endloop
  endfacet
  facet normal -0.382684 0.923879 0
    outer loop
      vertex 49.5 -3.75 20
      vertex 49.7601 -3.64226 0.822279
      vertex 49.5 -3.75 0.805129
    endloop
  endfacet
  facet normal 0.92388 0.382681 0
    outer loop
      vertex 47.25 -1.5 20
      vertex 47.4584 -2.0032 0.82894
      vertex 47.25 -1.5 0.803095
    endloop
  endfacet
  facet normal 0.92388 0.382681 6.00503e-09
    outer loop
      vertex 47.25 -1.5 20
      vertex 47.4966 -2.09527 0.827822
      vertex 47.4584 -2.0032 0.82894
    endloop
  endfacet
  facet normal 0.923879 0.382685 -1.16714e-07
    outer loop
      vertex 47.909 -3.09099 20
      vertex 47.4966 -2.09527 0.827822
      vertex 47.25 -1.5 20
    endloop
  endfacet
  facet normal 0.92388 0.382683 -1.81026e-07
    outer loop
      vertex 47.4966 -2.09527 0.827822
      vertex 47.909 -3.09099 20
      vertex 47.854 -2.95822 0.81734
    endloop
  endfacet
  facet normal 0.92387 0.382706 0
    outer loop
      vertex 47.854 -2.95822 0.81734
      vertex 47.909 -3.09099 20
      vertex 47.909 -3.09099 0.807665
    endloop
  endfacet
  facet normal -0.923879 0.382685 0
    outer loop
      vertex 51.387 -2.37647 0.828902
      vertex 51.75 -1.5 20
      vertex 51.75 -1.5 0.811202
    endloop
  endfacet
  facet normal -0.92388 0.382681 1.93488e-07
    outer loop
      vertex 51.3482 -2.47001 0.830791
      vertex 51.75 -1.5 20
      vertex 51.387 -2.37647 0.828902
    endloop
  endfacet
  facet normal -0.923881 0.38268 -1.62336e-07
    outer loop
      vertex 51.091 -3.09099 20
      vertex 51.3482 -2.47001 0.830791
      vertex 51.3111 -2.55952 0.826872
    endloop
  endfacet
  facet normal -0.923879 0.382685 0
    outer loop
      vertex 51.091 -3.09099 20
      vertex 51.3111 -2.55952 0.826872
      vertex 51.091 -3.09099 0.803604
    endloop
  endfacet
  facet normal -0.923879 0.382685 1.49135e-08
    outer loop
      vertex 51.3482 -2.47001 0.830791
      vertex 51.091 -3.09099 20
      vertex 51.75 -1.5 20
    endloop
  endfacet
  facet normal 0.382684 0.923879 -4.10289e-08
    outer loop
      vertex 49.5 -3.75 20
      vertex 48.7625 -3.44453 0.831708
      vertex 47.909 -3.09099 20
    endloop
  endfacet
  facet normal 0.382682 0.92388 6.57109e-08
    outer loop
      vertex 49.5 -3.75 20
      vertex 48.8547 -3.48271 0.828386
      vertex 48.7625 -3.44453 0.831708
    endloop
  endfacet
  facet normal 0.382683 0.92388 0
    outer loop
      vertex 48.8547 -3.48271 0.828386
      vertex 49.5 -3.75 20
      vertex 49.5 -3.75 0.805129
    endloop
  endfacet
  facet normal 0.382693 0.923876 4.27546e-07
    outer loop
      vertex 48.669 -3.40579 0.829073
      vertex 47.909 -3.09099 20
      vertex 48.7625 -3.44453 0.831708
    endloop
  endfacet
  facet normal 0.382684 0.923879 0
    outer loop
      vertex 47.909 -3.09099 20
      vertex 48.669 -3.40579 0.829073
      vertex 47.909 -3.09099 0.807665
    endloop
  endfacet
  facet normal -0.970942 -0.239316 0
    outer loop
      vertex 53.5 -1.5 -2
      vertex 53.0418 0.358892 0
      vertex 53.0418 0.358892 -2
    endloop
  endfacet
  facet normal -0.970942 -0.239316 0
    outer loop
      vertex 53.0418 0.358892 0
      vertex 53.5 -1.5 -2
      vertex 53.5 -1.5 0
    endloop
  endfacet
  facet normal 1 -0 0
    outer loop
      vertex 45.6162 -2.45726 0
      vertex 45.6162 -0.542738 -2
      vertex 45.6162 -0.542738 0
    endloop
  endfacet
  facet normal 1 0 0
    outer loop
      vertex 45.6162 -0.542738 -2
      vertex 45.6162 -2.45726 0
      vertex 45.6162 -2.45726 -2
    endloop
  endfacet
  facet normal 0.120536 -0.992709 0
    outer loop
      vertex 48.0816 2.24006 -2
      vertex 49.9821 2.47083 0
      vertex 48.0816 2.24006 0
    endloop
  endfacet
  facet normal 0.120536 -0.992709 0
    outer loop
      vertex 49.9821 2.47083 0
      vertex 48.0816 2.24006 -2
      vertex 49.9821 2.47083 -2
    endloop
  endfacet
  facet normal -0.748511 -0.663123 0
    outer loop
      vertex 53.0418 0.358892 -2
      vertex 51.7723 1.79193 0
      vertex 51.7723 1.79193 -2
    endloop
  endfacet
  facet normal -0.748511 -0.663123 0
    outer loop
      vertex 51.7723 1.79193 0
      vertex 53.0418 0.358892 -2
      vertex 53.0418 0.358892 0
    endloop
  endfacet
  facet normal 0.568065 -0.822984 0
    outer loop
      vertex 46.506 1.15249 -2
      vertex 48.0816 2.24006 0
      vertex 46.506 1.15249 0
    endloop
  endfacet
  facet normal 0.568065 -0.822984 0
    outer loop
      vertex 48.0816 2.24006 0
      vertex 46.506 1.15249 -2
      vertex 48.0816 2.24006 -2
    endloop
  endfacet
  facet normal -0.970942 0.239316 0
    outer loop
      vertex 53.0418 -3.35889 -2
      vertex 53.5 -1.5 0
      vertex 53.5 -1.5 -2
    endloop
  endfacet
  facet normal -0.970942 0.239316 0
    outer loop
      vertex 53.5 -1.5 0
      vertex 53.0418 -3.35889 -2
      vertex 53.0418 -3.35889 0
    endloop
  endfacet
  facet normal -0.354605 -0.935016 0
    outer loop
      vertex 49.9821 2.47083 -2
      vertex 51.7723 1.79193 0
      vertex 49.9821 2.47083 0
    endloop
  endfacet
  facet normal -0.354605 -0.935016 -0
    outer loop
      vertex 51.7723 1.79193 0
      vertex 49.9821 2.47083 -2
      vertex 51.7723 1.79193 -2
    endloop
  endfacet
  facet normal 0.885456 0.464723 0
    outer loop
      vertex 46.506 -4.15249 0
      vertex 45.6162 -2.45726 -2
      vertex 45.6162 -2.45726 0
    endloop
  endfacet
  facet normal 0.885456 0.464723 0
    outer loop
      vertex 45.6162 -2.45726 -2
      vertex 46.506 -4.15249 0
      vertex 46.506 -4.15249 -2
    endloop
  endfacet
  facet normal -0.748511 0.663123 0
    outer loop
      vertex 51.7723 -4.79193 -2
      vertex 53.0418 -3.35889 0
      vertex 53.0418 -3.35889 -2
    endloop
  endfacet
  facet normal -0.748511 0.663123 0
    outer loop
      vertex 53.0418 -3.35889 0
      vertex 51.7723 -4.79193 -2
      vertex 51.7723 -4.79193 0
    endloop
  endfacet
  facet normal 0.885456 -0.464723 0
    outer loop
      vertex 45.6162 -0.542738 0
      vertex 46.506 1.15249 -2
      vertex 46.506 1.15249 0
    endloop
  endfacet
  facet normal 0.885456 -0.464723 0
    outer loop
      vertex 46.506 1.15249 -2
      vertex 45.6162 -0.542738 0
      vertex 45.6162 -0.542738 -2
    endloop
  endfacet
  facet normal 0.568065 0.822984 -0
    outer loop
      vertex 48.0816 -5.24006 -2
      vertex 46.506 -4.15249 0
      vertex 48.0816 -5.24006 0
    endloop
  endfacet
  facet normal 0.568065 0.822984 0
    outer loop
      vertex 46.506 -4.15249 0
      vertex 48.0816 -5.24006 -2
      vertex 46.506 -4.15249 -2
    endloop
  endfacet
  facet normal -0.354605 0.935016 0
    outer loop
      vertex 51.7723 -4.79193 -2
      vertex 49.9821 -5.47083 0
      vertex 51.7723 -4.79193 0
    endloop
  endfacet
  facet normal -0.354605 0.935016 0
    outer loop
      vertex 49.9821 -5.47083 0
      vertex 51.7723 -4.79193 -2
      vertex 49.9821 -5.47083 -2
    endloop
  endfacet
  facet normal 0.120536 0.992709 -0
    outer loop
      vertex 49.9821 -5.47083 -2
      vertex 48.0816 -5.24006 0
      vertex 49.9821 -5.47083 0
    endloop
  endfacet
  facet normal 0.120536 0.992709 0
    outer loop
      vertex 48.0816 -5.24006 0
      vertex 49.9821 -5.47083 -2
      vertex 48.0816 -5.24006 -2
    endloop
  endfacet
  facet normal 0.662603 0.347761 -0.66334
    outer loop
      vertex 46.8025 -3.88981 0.433884
      vertex 46.506 -4.15249 0
      vertex 45.6162 -2.45726 0
    endloop
  endfacet
  facet normal 0.0148325 -0.122158 -0.9924
    outer loop
      vertex 49.5 0.75 0.805129
      vertex 49.8006 0.975775 0.781831
      vertex 49.7601 0.642256 0.822279
    endloop
  endfacet
  facet normal 0.0148326 -0.122158 -0.9924
    outer loop
      vertex 48.6156 0.831892 0.781831
      vertex 49.5 0.75 0.805129
      vertex 48.8547 0.482714 0.828386
    endloop
  endfacet
  facet normal 0.0148326 -0.122158 -0.9924
    outer loop
      vertex 49.5 0.75 0.805129
      vertex 48.6156 0.831892 0.781831
      vertex 49.8006 0.975775 0.781831
    endloop
  endfacet
  facet normal -0.0921078 -0.0816006 -0.9924
    outer loop
      vertex 51.091 0.0909901 0.803604
      vertex 51.7083 -0.341 0.781831
      vertex 51.3111 -0.440478 0.826872
    endloop
  endfacet
  facet normal -0.0921074 -0.0816002 -0.9924
    outer loop
      vertex 51.091 0.0909901 0.803604
      vertex 50.9167 0.552487 0.781831
      vertex 51.7083 -0.341 0.781831
    endloop
  endfacet
  facet normal -0.0921081 -0.0816004 -0.9924
    outer loop
      vertex 50.9167 0.552487 0.781831
      vertex 51.091 0.0909901 0.803604
      vertex 50.7078 0.249732 0.826121
    endloop
  endfacet
  facet normal 0.17454 0.252864 -0.951628
    outer loop
      vertex 47.6332 -3.1538 0.781831
      vertex 48.6156 -3.83189 0.781831
      vertex 46.8025 -3.88981 0.433884
    endloop
  endfacet
  facet normal -0.298326 0.0735309 -0.951628
    outer loop
      vertex 53.1039 -1.5 0.433884
      vertex 52.6911 -3.1748 0.433884
      vertex 51.7083 -2.659 0.781831
    endloop
  endfacet
  facet normal -0.560123 0.496226 -0.663342
    outer loop
      vertex 53.0418 -3.35889 0
      vertex 51.7723 -4.79193 0
      vertex 51.5472 -4.46593 0.433884
    endloop
  endfacet
  facet normal 0.10896 0.0571859 -0.9924
    outer loop
      vertex 47.4584 -2.0032 0.82894
      vertex 47.4966 -2.09527 0.827822
      vertex 47.0785 -2.09684 0.781831
    endloop
  endfacet
  facet normal 0.108961 0.057187 -0.9924
    outer loop
      vertex 47.6332 -3.1538 0.781831
      vertex 47.4966 -2.09527 0.827822
      vertex 47.854 -2.95822 0.81734
    endloop
  endfacet
  facet normal 0.10896 0.0571869 -0.9924
    outer loop
      vertex 47.4966 -2.09527 0.827822
      vertex 47.6332 -3.1538 0.781831
      vertex 47.0785 -2.09684 0.781831
    endloop
  endfacet
  facet normal -0.726571 0.179084 -0.663343
    outer loop
      vertex 53.1039 -1.5 0.433884
      vertex 53.5 -1.5 0
      vertex 52.6911 -3.1748 0.433884
    endloop
  endfacet
  facet normal 0.108961 -0.057187 -0.9924
    outer loop
      vertex 47.4966 -0.904731 0.827822
      vertex 47.6332 0.1538 0.781831
      vertex 47.854 -0.0417833 0.81734
    endloop
  endfacet
  facet normal 0.10896 -0.0571869 -0.9924
    outer loop
      vertex 47.6332 0.1538 0.781831
      vertex 47.4966 -0.904731 0.827822
      vertex 47.0785 -0.903157 0.781831
    endloop
  endfacet
  facet normal -0.560123 -0.496226 -0.663342
    outer loop
      vertex 51.7723 1.79193 0
      vertex 53.0418 0.358892 0
      vertex 51.5472 1.46593 0.433884
    endloop
  endfacet
  facet normal -0.0436359 -0.115058 -0.9924
    outer loop
      vertex 50.6188 0.286564 0.82576
      vertex 49.8006 0.975775 0.781831
      vertex 50.9167 0.552487 0.781831
    endloop
  endfacet
  facet normal -0.0436359 -0.115058 -0.9924
    outer loop
      vertex 49.8006 0.975775 0.781831
      vertex 50.6188 0.286564 0.82576
      vertex 49.7601 0.642256 0.822279
    endloop
  endfacet
  facet normal -0.108954 -0.287287 -0.951628
    outer loop
      vertex 51.5472 1.46593 0.433884
      vertex 50.9167 0.552487 0.781831
      vertex 49.8006 0.975775 0.781831
    endloop
  endfacet
  facet normal -0.265357 -0.699688 -0.663342
    outer loop
      vertex 51.7723 1.79193 0
      vertex 51.5472 1.46593 0.433884
      vertex 49.9821 2.47083 0
    endloop
  endfacet
  facet normal -0.298325 -0.0735304 -0.951628
    outer loop
      vertex 53.1039 -1.5 0.433884
      vertex 51.994 -1.5 0.781831
      vertex 51.7083 -0.341 0.781831
    endloop
  endfacet
  facet normal 0.748318 0 -0.663341
    outer loop
      vertex 46.0008 -2.36246 0.433884
      vertex 45.6162 -0.542738 0
      vertex 46.0008 -0.637537 0.433884
    endloop
  endfacet
  facet normal 0.748318 0 -0.663341
    outer loop
      vertex 45.6162 -0.542738 0
      vertex 46.0008 -2.36246 0.433884
      vertex 45.6162 -2.45726 0
    endloop
  endfacet
  facet normal 0.10896 -0.0571859 -0.9924
    outer loop
      vertex 47.4966 -0.904731 0.827822
      vertex 47.4584 -0.996799 0.82894
      vertex 47.0785 -0.903157 0.781831
    endloop
  endfacet
  facet normal -0.265357 0.699688 -0.663342
    outer loop
      vertex 51.5472 -4.46593 0.433884
      vertex 49.9821 -5.47083 0
      vertex 49.9344 -5.0776 0.433884
    endloop
  endfacet
  facet normal -0.229983 0.203747 -0.951628
    outer loop
      vertex 51.7083 -2.659 0.781831
      vertex 52.6911 -3.1748 0.433884
      vertex 51.5472 -4.46593 0.433884
    endloop
  endfacet
  facet normal 0.0370354 0.305013 -0.951628
    outer loop
      vertex 48.6156 -3.83189 0.781831
      vertex 49.9344 -5.0776 0.433884
      vertex 48.222 -4.86968 0.433884
    endloop
  endfacet
  facet normal -0.0921078 -0.0816004 -0.9924
    outer loop
      vertex 51.7083 -0.341 0.781831
      vertex 51.3482 -0.529986 0.830791
      vertex 51.3111 -0.440478 0.826872
    endloop
  endfacet
  facet normal -0.119479 -0.0294493 -0.9924
    outer loop
      vertex 51.387 -0.623528 0.828902
      vertex 51.994 -1.5 0.781831
      vertex 51.75 -1.5 0.811202
    endloop
  endfacet
  facet normal -0.119479 -0.0294488 -0.9924
    outer loop
      vertex 51.994 -1.5 0.781831
      vertex 51.387 -0.623528 0.828902
      vertex 51.7083 -0.341 0.781831
    endloop
  endfacet
  facet normal -0.298326 -0.0735309 -0.951628
    outer loop
      vertex 52.6911 0.174804 0.433884
      vertex 53.1039 -1.5 0.433884
      vertex 51.7083 -0.341 0.781831
    endloop
  endfacet
  facet normal -0.726571 -0.179084 -0.663343
    outer loop
      vertex 53.5 -1.5 0
      vertex 53.1039 -1.5 0.433884
      vertex 52.6911 0.174804 0.433884
    endloop
  endfacet
  facet normal -0.108954 -0.287287 -0.951628
    outer loop
      vertex 49.9344 2.0776 0.433884
      vertex 51.5472 1.46593 0.433884
      vertex 49.8006 0.975775 0.781831
    endloop
  endfacet
  facet normal -0.265357 -0.699688 -0.663342
    outer loop
      vertex 49.9821 2.47083 0
      vertex 51.5472 1.46593 0.433884
      vertex 49.9344 2.0776 0.433884
    endloop
  endfacet
  facet normal 0.0901997 -0.74286 -0.663342
    outer loop
      vertex 49.9344 2.0776 0.433884
      vertex 48.222 1.86968 0.433884
      vertex 48.0816 2.24006 0
    endloop
  endfacet
  facet normal 0.662602 0.34776 -0.663341
    outer loop
      vertex 46.0008 -2.36246 0.433884
      vertex 46.8025 -3.88981 0.433884
      vertex 45.6162 -2.45726 0
    endloop
  endfacet
  facet normal -0.560122 -0.496224 -0.663344
    outer loop
      vertex 53.0418 0.358892 0
      vertex 52.6911 0.174804 0.433884
      vertex 51.5472 1.46593 0.433884
    endloop
  endfacet
  facet normal -0.72657 -0.179083 -0.663344
    outer loop
      vertex 53.0418 0.358892 0
      vertex 53.5 -1.5 0
      vertex 52.6911 0.174804 0.433884
    endloop
  endfacet
  facet normal 0.0370353 -0.305013 -0.951628
    outer loop
      vertex 49.9344 2.0776 0.433884
      vertex 49.8006 0.975775 0.781831
      vertex 48.6156 0.831892 0.781831
    endloop
  endfacet
  facet normal 0.17454 0.252865 -0.951628
    outer loop
      vertex 48.6156 -3.83189 0.781831
      vertex 48.222 -4.86968 0.433884
      vertex 46.8025 -3.88981 0.433884
    endloop
  endfacet
  facet normal -0.0436359 0.115058 -0.9924
    outer loop
      vertex 49.8006 -3.97577 0.781831
      vertex 50.6188 -3.28656 0.82576
      vertex 50.9167 -3.55249 0.781831
    endloop
  endfacet
  facet normal -0.0436359 0.115058 -0.9924
    outer loop
      vertex 50.6188 -3.28656 0.82576
      vertex 49.8006 -3.97577 0.781831
      vertex 49.7601 -3.64226 0.822279
    endloop
  endfacet
  facet normal 0.0148325 0.122158 -0.9924
    outer loop
      vertex 49.8006 -3.97577 0.781831
      vertex 49.5 -3.75 0.805129
      vertex 49.7601 -3.64226 0.822279
    endloop
  endfacet
  facet normal 0.0148326 0.122158 -0.9924
    outer loop
      vertex 48.6156 -3.83189 0.781831
      vertex 49.5 -3.75 0.805129
      vertex 49.8006 -3.97577 0.781831
    endloop
  endfacet
  facet normal 0.0148326 0.122158 -0.9924
    outer loop
      vertex 49.5 -3.75 0.805129
      vertex 48.6156 -3.83189 0.781831
      vertex 48.8547 -3.48271 0.828386
    endloop
  endfacet
  facet normal 0.425092 0.615853 -0.663341
    outer loop
      vertex 46.8025 -3.88981 0.433884
      vertex 48.222 -4.86968 0.433884
      vertex 46.506 -4.15249 0
    endloop
  endfacet
  facet normal 0.0901997 0.74286 -0.663342
    outer loop
      vertex 48.222 -4.86968 0.433884
      vertex 49.9344 -5.0776 0.433884
      vertex 48.0816 -5.24006 0
    endloop
  endfacet
  facet normal 0.425092 0.615852 -0.663342
    outer loop
      vertex 48.222 -4.86968 0.433884
      vertex 48.0816 -5.24006 0
      vertex 46.506 -4.15249 0
    endloop
  endfacet
  facet normal -0.560122 0.496224 -0.663344
    outer loop
      vertex 52.6911 -3.1748 0.433884
      vertex 53.0418 -3.35889 0
      vertex 51.5472 -4.46593 0.433884
    endloop
  endfacet
  facet normal -0.72657 0.179083 -0.663344
    outer loop
      vertex 53.5 -1.5 0
      vertex 53.0418 -3.35889 0
      vertex 52.6911 -3.1748 0.433884
    endloop
  endfacet
  facet normal -0.298325 0.0735304 -0.951628
    outer loop
      vertex 51.994 -1.5 0.781831
      vertex 53.1039 -1.5 0.433884
      vertex 51.7083 -2.659 0.781831
    endloop
  endfacet
  facet normal -0.119479 0.0294488 -0.9924
    outer loop
      vertex 51.387 -2.37647 0.828902
      vertex 51.994 -1.5 0.781831
      vertex 51.7083 -2.659 0.781831
    endloop
  endfacet
  facet normal -0.119479 0.0294493 -0.9924
    outer loop
      vertex 51.994 -1.5 0.781831
      vertex 51.387 -2.37647 0.828902
      vertex 51.75 -1.5 0.811202
    endloop
  endfacet
  facet normal -0.0436357 -0.115058 -0.9924
    outer loop
      vertex 50.9167 0.552487 0.781831
      vertex 50.7078 0.249732 0.826121
      vertex 50.6188 0.286564 0.82576
    endloop
  endfacet
  facet normal -0.119479 -0.0294483 -0.9924
    outer loop
      vertex 51.7083 -0.341 0.781831
      vertex 51.387 -0.623528 0.828902
      vertex 51.3482 -0.529986 0.830791
    endloop
  endfacet
  facet normal 0.27206 0.142788 -0.951628
    outer loop
      vertex 47.0785 -2.09684 0.781831
      vertex 46.8025 -3.88981 0.433884
      vertex 46.0008 -2.36246 0.433884
    endloop
  endfacet
  facet normal 0.272058 0.142788 -0.951628
    outer loop
      vertex 47.0785 -2.09684 0.781831
      vertex 47.6332 -3.1538 0.781831
      vertex 46.8025 -3.88981 0.433884
    endloop
  endfacet
  facet normal 0.425092 -0.615853 -0.663341
    outer loop
      vertex 48.222 1.86968 0.433884
      vertex 46.8025 0.889811 0.433884
      vertex 46.506 1.15249 0
    endloop
  endfacet
  facet normal 0.0148328 0.122158 -0.9924
    outer loop
      vertex 48.7625 -3.44453 0.831708
      vertex 48.8547 -3.48271 0.828386
      vertex 48.6156 -3.83189 0.781831
    endloop
  endfacet
  facet normal 0.0699032 0.101272 -0.9924
    outer loop
      vertex 48.6156 -3.83189 0.781831
      vertex 47.909 -3.09099 0.807665
      vertex 48.669 -3.40579 0.829073
    endloop
  endfacet
  facet normal 0.0699026 0.101274 -0.9924
    outer loop
      vertex 47.909 -3.09099 0.807665
      vertex 47.6332 -3.1538 0.781831
      vertex 47.854 -2.95822 0.81734
    endloop
  endfacet
  facet normal 0.0699031 0.101272 -0.9924
    outer loop
      vertex 47.6332 -3.1538 0.781831
      vertex 47.909 -3.09099 0.807665
      vertex 48.6156 -3.83189 0.781831
    endloop
  endfacet
  facet normal -0.265357 0.699688 -0.663342
    outer loop
      vertex 51.5472 -4.46593 0.433884
      vertex 51.7723 -4.79193 0
      vertex 49.9821 -5.47083 0
    endloop
  endfacet
  facet normal -0.108954 0.287287 -0.951628
    outer loop
      vertex 51.5472 -4.46593 0.433884
      vertex 49.9344 -5.0776 0.433884
      vertex 49.8006 -3.97577 0.781831
    endloop
  endfacet
  facet normal 0.0370353 0.305013 -0.951628
    outer loop
      vertex 49.8006 -3.97577 0.781831
      vertex 49.9344 -5.0776 0.433884
      vertex 48.6156 -3.83189 0.781831
    endloop
  endfacet
  facet normal 0.0901995 0.742861 -0.663341
    outer loop
      vertex 49.9344 -5.0776 0.433884
      vertex 49.9821 -5.47083 0
      vertex 48.0816 -5.24006 0
    endloop
  endfacet
  facet normal -0.108954 0.287287 -0.951628
    outer loop
      vertex 50.9167 -3.55249 0.781831
      vertex 51.5472 -4.46593 0.433884
      vertex 49.8006 -3.97577 0.781831
    endloop
  endfacet
  facet normal -0.119479 0.0294483 -0.9924
    outer loop
      vertex 51.387 -2.37647 0.828902
      vertex 51.7083 -2.659 0.781831
      vertex 51.3482 -2.47001 0.830791
    endloop
  endfacet
  facet normal -0.229982 0.203747 -0.951628
    outer loop
      vertex 51.7083 -2.659 0.781831
      vertex 51.5472 -4.46593 0.433884
      vertex 50.9167 -3.55249 0.781831
    endloop
  endfacet
  facet normal -0.0436358 0.115058 -0.9924
    outer loop
      vertex 50.7078 -3.24973 0.826121
      vertex 50.9167 -3.55249 0.781831
      vertex 50.6188 -3.28656 0.82576
    endloop
  endfacet
  facet normal -0.229983 -0.203747 -0.951628
    outer loop
      vertex 52.6911 0.174804 0.433884
      vertex 51.7083 -0.341 0.781831
      vertex 51.5472 1.46593 0.433884
    endloop
  endfacet
  facet normal -0.229982 -0.203747 -0.951628
    outer loop
      vertex 51.5472 1.46593 0.433884
      vertex 51.7083 -0.341 0.781831
      vertex 50.9167 0.552487 0.781831
    endloop
  endfacet
  facet normal 0.0699049 0.101272 -0.9924
    outer loop
      vertex 48.669 -3.40579 0.829073
      vertex 48.7625 -3.44453 0.831708
      vertex 48.6156 -3.83189 0.781831
    endloop
  endfacet
  facet normal -0.0921078 0.0816006 -0.9924
    outer loop
      vertex 51.7083 -2.659 0.781831
      vertex 51.091 -3.09099 0.803604
      vertex 51.3111 -2.55952 0.826872
    endloop
  endfacet
  facet normal -0.0921074 0.0816002 -0.9924
    outer loop
      vertex 50.9167 -3.55249 0.781831
      vertex 51.091 -3.09099 0.803604
      vertex 51.7083 -2.659 0.781831
    endloop
  endfacet
  facet normal -0.0921081 0.0816004 -0.9924
    outer loop
      vertex 51.091 -3.09099 0.803604
      vertex 50.9167 -3.55249 0.781831
      vertex 50.7078 -3.24973 0.826121
    endloop
  endfacet
  facet normal -0.0921078 0.0816003 -0.9924
    outer loop
      vertex 51.3482 -2.47001 0.830791
      vertex 51.7083 -2.659 0.781831
      vertex 51.3111 -2.55952 0.826872
    endloop
  endfacet
  facet normal 0.123055 -2.36118e-07 -0.9924
    outer loop
      vertex 47.4584 -2.0032 0.82894
      vertex 47.0785 -2.09684 0.781831
      vertex 47.25 -1.5 0.803095
    endloop
  endfacet
  facet normal 0.123055 2.36118e-07 -0.9924
    outer loop
      vertex 47.25 -1.5 0.803095
      vertex 47.0785 -0.903157 0.781831
      vertex 47.4584 -0.996799 0.82894
    endloop
  endfacet
  facet normal 0.123054 0 -0.9924
    outer loop
      vertex 47.0785 -0.903157 0.781831
      vertex 47.25 -1.5 0.803095
      vertex 47.0785 -2.09684 0.781831
    endloop
  endfacet
  facet normal 0.0370354 -0.305013 -0.951628
    outer loop
      vertex 49.9344 2.0776 0.433884
      vertex 48.6156 0.831892 0.781831
      vertex 48.222 1.86968 0.433884
    endloop
  endfacet
  facet normal 0.662602 -0.34776 -0.663341
    outer loop
      vertex 46.8025 0.889811 0.433884
      vertex 46.0008 -0.637537 0.433884
      vertex 45.6162 -0.542738 0
    endloop
  endfacet
  facet normal 0.425092 -0.615852 -0.663342
    outer loop
      vertex 48.0816 2.24006 0
      vertex 48.222 1.86968 0.433884
      vertex 46.506 1.15249 0
    endloop
  endfacet
  facet normal 0.27206 -0.142788 -0.951628
    outer loop
      vertex 46.8025 0.889811 0.433884
      vertex 47.0785 -0.903157 0.781831
      vertex 46.0008 -0.637537 0.433884
    endloop
  endfacet
  facet normal 0.0699049 -0.101272 -0.9924
    outer loop
      vertex 48.7625 0.444532 0.831708
      vertex 48.669 0.405787 0.829073
      vertex 48.6156 0.831892 0.781831
    endloop
  endfacet
  facet normal 0.0699032 -0.101272 -0.9924
    outer loop
      vertex 47.909 0.0909901 0.807665
      vertex 48.6156 0.831892 0.781831
      vertex 48.669 0.405787 0.829073
    endloop
  endfacet
  facet normal 0.0699031 -0.101272 -0.9924
    outer loop
      vertex 47.909 0.0909901 0.807665
      vertex 47.6332 0.1538 0.781831
      vertex 48.6156 0.831892 0.781831
    endloop
  endfacet
  facet normal 0.0699026 -0.101274 -0.9924
    outer loop
      vertex 47.6332 0.1538 0.781831
      vertex 47.909 0.0909901 0.807665
      vertex 47.854 -0.0417833 0.81734
    endloop
  endfacet
  facet normal 0.17454 -0.252864 -0.951628
    outer loop
      vertex 48.6156 0.831892 0.781831
      vertex 47.6332 0.1538 0.781831
      vertex 46.8025 0.889811 0.433884
    endloop
  endfacet
  facet normal 0.272058 -0.142788 -0.951628
    outer loop
      vertex 47.6332 0.1538 0.781831
      vertex 47.0785 -0.903157 0.781831
      vertex 46.8025 0.889811 0.433884
    endloop
  endfacet
  facet normal 0.662603 -0.347761 -0.66334
    outer loop
      vertex 46.506 1.15249 0
      vertex 46.8025 0.889811 0.433884
      vertex 45.6162 -0.542738 0
    endloop
  endfacet
  facet normal 0.17454 -0.252865 -0.951628
    outer loop
      vertex 48.222 1.86968 0.433884
      vertex 48.6156 0.831892 0.781831
      vertex 46.8025 0.889811 0.433884
    endloop
  endfacet
  facet normal 0.0148328 -0.122158 -0.9924
    outer loop
      vertex 48.8547 0.482714 0.828386
      vertex 48.7625 0.444532 0.831708
      vertex 48.6156 0.831892 0.781831
    endloop
  endfacet
  facet normal 0.307254 0 -0.951628
    outer loop
      vertex 46.0008 -2.36246 0.433884
      vertex 47.0785 -0.903157 0.781831
      vertex 47.0785 -2.09684 0.781831
    endloop
  endfacet
  facet normal 0.307254 0 -0.951628
    outer loop
      vertex 47.0785 -0.903157 0.781831
      vertex 46.0008 -2.36246 0.433884
      vertex 46.0008 -0.637537 0.433884
    endloop
  endfacet
  facet normal 0.0901995 -0.742861 -0.663341
    outer loop
      vertex 49.9821 2.47083 0
      vertex 49.9344 2.0776 0.433884
      vertex 48.0816 2.24006 0
    endloop
  endfacet
  facet normal -0.923879 -0.382685 0
    outer loop
      vertex -47.6889 -0.440478 0.826872
      vertex -47.909 0.0909901 20
      vertex -47.909 0.0909901 0.803604
    endloop
  endfacet
  facet normal -0.923881 -0.38268 -1.54093e-07
    outer loop
      vertex -47.6518 -0.529986 0.830791
      vertex -47.909 0.0909901 20
      vertex -47.6889 -0.440478 0.826872
    endloop
  endfacet
  facet normal -0.92388 -0.382682 -9.16927e-08
    outer loop
      vertex -47.613 -0.623528 0.828902
      vertex -47.909 0.0909901 20
      vertex -47.6518 -0.529986 0.830791
    endloop
  endfacet
  facet normal -0.923879 -0.382685 -0
    outer loop
      vertex -47.25 -1.5 20
      vertex -47.613 -0.623528 0.828902
      vertex -47.25 -1.5 0.811202
    endloop
  endfacet
  facet normal -0.923879 -0.382685 3.09601e-08
    outer loop
      vertex -47.613 -0.623528 0.828902
      vertex -47.25 -1.5 20
      vertex -47.909 0.0909901 20
    endloop
  endfacet
  facet normal 0.92387 -0.382706 0
    outer loop
      vertex -51.091 0.0909901 20
      vertex -51.146 -0.0417833 0.81734
      vertex -51.091 0.0909901 0.807665
    endloop
  endfacet
  facet normal 0.92388 -0.382683 -1.80866e-07
    outer loop
      vertex -51.091 0.0909901 20
      vertex -51.5034 -0.904731 0.827822
      vertex -51.146 -0.0417833 0.81734
    endloop
  endfacet
  facet normal 0.923879 -0.382685 -1.15524e-07
    outer loop
      vertex -51.75 -1.5 20
      vertex -51.5034 -0.904731 0.827822
      vertex -51.091 0.0909901 20
    endloop
  endfacet
  facet normal 0.92388 -0.382681 7.1952e-09
    outer loop
      vertex -51.5034 -0.904731 0.827822
      vertex -51.75 -1.5 20
      vertex -51.5416 -0.996799 0.82894
    endloop
  endfacet
  facet normal 0.92388 -0.382681 0
    outer loop
      vertex -51.5416 -0.996799 0.82894
      vertex -51.75 -1.5 20
      vertex -51.75 -1.5 0.803095
    endloop
  endfacet
  facet normal -0.382684 -0.923879 -1.74733e-08
    outer loop
      vertex -48.3812 0.286564 0.82576
      vertex -47.909 0.0909901 20
      vertex -49.5 0.75 20
    endloop
  endfacet
  facet normal -0.382685 -0.923879 7.61051e-09
    outer loop
      vertex -47.909 0.0909901 20
      vertex -48.3812 0.286564 0.82576
      vertex -48.2922 0.249732 0.826121
    endloop
  endfacet
  facet normal -0.382684 -0.923879 4.73208e-09
    outer loop
      vertex -49.5 0.75 20
      vertex -49.2399 0.642256 0.822279
      vertex -48.3812 0.286564 0.82576
    endloop
  endfacet
  facet normal -0.382684 -0.923879 0
    outer loop
      vertex -49.2399 0.642256 0.822279
      vertex -49.5 0.75 20
      vertex -49.5 0.75 0.805129
    endloop
  endfacet
  facet normal -0.382685 -0.923879 -0
    outer loop
      vertex -47.909 0.0909901 20
      vertex -48.2922 0.249732 0.826121
      vertex -47.909 0.0909901 0.803604
    endloop
  endfacet
  facet normal 0.382684 -0.923879 -4.39018e-08
    outer loop
      vertex -51.091 0.0909901 20
      vertex -50.2375 0.444532 0.831708
      vertex -49.5 0.75 20
    endloop
  endfacet
  facet normal 0.382693 -0.923876 4.11586e-07
    outer loop
      vertex -51.091 0.0909901 20
      vertex -50.331 0.405787 0.829073
      vertex -50.2375 0.444532 0.831708
    endloop
  endfacet
  facet normal 0.382684 -0.923879 0
    outer loop
      vertex -50.331 0.405787 0.829073
      vertex -51.091 0.0909901 20
      vertex -51.091 0.0909901 0.807665
    endloop
  endfacet
  facet normal 0.382682 -0.92388 5.1366e-08
    outer loop
      vertex -50.1453 0.482714 0.828386
      vertex -49.5 0.75 20
      vertex -50.2375 0.444532 0.831708
    endloop
  endfacet
  facet normal 0.382683 -0.92388 0
    outer loop
      vertex -49.5 0.75 20
      vertex -50.1453 0.482714 0.828386
      vertex -49.5 0.75 0.805129
    endloop
  endfacet
  facet normal -0.382685 0.923879 2.42978e-08
    outer loop
      vertex -48.3812 -3.28656 0.82576
      vertex -47.909 -3.09099 20
      vertex -48.2922 -3.24973 0.826121
    endloop
  endfacet
  facet normal -0.382684 0.923879 0
    outer loop
      vertex -48.2922 -3.24973 0.826121
      vertex -47.909 -3.09099 20
      vertex -47.909 -3.09099 0.803604
    endloop
  endfacet
  facet normal -0.382684 0.923879 -1.60373e-08
    outer loop
      vertex -47.909 -3.09099 20
      vertex -48.3812 -3.28656 0.82576
      vertex -49.5 -3.75 20
    endloop
  endfacet
  facet normal -0.382684 0.923879 4.29721e-09
    outer loop
      vertex -49.2399 -3.64226 0.822279
      vertex -49.5 -3.75 20
      vertex -48.3812 -3.28656 0.82576
    endloop
  endfacet
  facet normal -0.382684 0.923879 0
    outer loop
      vertex -49.5 -3.75 20
      vertex -49.2399 -3.64226 0.822279
      vertex -49.5 -3.75 0.805129
    endloop
  endfacet
  facet normal 0.92388 0.382681 0
    outer loop
      vertex -51.75 -1.5 20
      vertex -51.5416 -2.0032 0.82894
      vertex -51.75 -1.5 0.803095
    endloop
  endfacet
  facet normal 0.92388 0.382681 6.00503e-09
    outer loop
      vertex -51.75 -1.5 20
      vertex -51.5034 -2.09527 0.827822
      vertex -51.5416 -2.0032 0.82894
    endloop
  endfacet
  facet normal 0.923879 0.382685 -1.16714e-07
    outer loop
      vertex -51.091 -3.09099 20
      vertex -51.5034 -2.09527 0.827822
      vertex -51.75 -1.5 20
    endloop
  endfacet
  facet normal 0.92388 0.382683 -1.81026e-07
    outer loop
      vertex -51.5034 -2.09527 0.827822
      vertex -51.091 -3.09099 20
      vertex -51.146 -2.95822 0.81734
    endloop
  endfacet
  facet normal 0.92387 0.382706 0
    outer loop
      vertex -51.146 -2.95822 0.81734
      vertex -51.091 -3.09099 20
      vertex -51.091 -3.09099 0.807665
    endloop
  endfacet
  facet normal -0.923879 0.382685 0
    outer loop
      vertex -47.613 -2.37647 0.828902
      vertex -47.25 -1.5 20
      vertex -47.25 -1.5 0.811202
    endloop
  endfacet
  facet normal -0.92388 0.382681 1.93488e-07
    outer loop
      vertex -47.6518 -2.47001 0.830791
      vertex -47.25 -1.5 20
      vertex -47.613 -2.37647 0.828902
    endloop
  endfacet
  facet normal -0.923881 0.38268 -1.62336e-07
    outer loop
      vertex -47.909 -3.09099 20
      vertex -47.6518 -2.47001 0.830791
      vertex -47.6889 -2.55952 0.826872
    endloop
  endfacet
  facet normal -0.923879 0.382685 0
    outer loop
      vertex -47.909 -3.09099 20
      vertex -47.6889 -2.55952 0.826872
      vertex -47.909 -3.09099 0.803604
    endloop
  endfacet
  facet normal -0.923879 0.382685 1.49135e-08
    outer loop
      vertex -47.6518 -2.47001 0.830791
      vertex -47.909 -3.09099 20
      vertex -47.25 -1.5 20
    endloop
  endfacet
  facet normal 0.382684 0.923879 -4.10289e-08
    outer loop
      vertex -49.5 -3.75 20
      vertex -50.2375 -3.44453 0.831708
      vertex -51.091 -3.09099 20
    endloop
  endfacet
  facet normal 0.382682 0.92388 6.57109e-08
    outer loop
      vertex -49.5 -3.75 20
      vertex -50.1453 -3.48271 0.828386
      vertex -50.2375 -3.44453 0.831708
    endloop
  endfacet
  facet normal 0.382683 0.92388 0
    outer loop
      vertex -50.1453 -3.48271 0.828386
      vertex -49.5 -3.75 20
      vertex -49.5 -3.75 0.805129
    endloop
  endfacet
  facet normal 0.382693 0.923876 4.27546e-07
    outer loop
      vertex -50.331 -3.40579 0.829073
      vertex -51.091 -3.09099 20
      vertex -50.2375 -3.44453 0.831708
    endloop
  endfacet
  facet normal 0.382684 0.923879 0
    outer loop
      vertex -51.091 -3.09099 20
      vertex -50.331 -3.40579 0.829073
      vertex -51.091 -3.09099 0.807665
    endloop
  endfacet
  facet normal -0.970942 -0.239316 0
    outer loop
      vertex -45.5 -1.5 -2
      vertex -45.9582 0.358892 0
      vertex -45.9582 0.358892 -2
    endloop
  endfacet
  facet normal -0.970942 -0.239316 0
    outer loop
      vertex -45.9582 0.358892 0
      vertex -45.5 -1.5 -2
      vertex -45.5 -1.5 0
    endloop
  endfacet
  facet normal 1 -0 0
    outer loop
      vertex -53.3838 -2.45726 0
      vertex -53.3838 -0.542738 -2
      vertex -53.3838 -0.542738 0
    endloop
  endfacet
  facet normal 1 0 0
    outer loop
      vertex -53.3838 -0.542738 -2
      vertex -53.3838 -2.45726 0
      vertex -53.3838 -2.45726 -2
    endloop
  endfacet
  facet normal 0.120536 -0.992709 0
    outer loop
      vertex -50.9184 2.24006 -2
      vertex -49.0179 2.47083 0
      vertex -50.9184 2.24006 0
    endloop
  endfacet
  facet normal 0.120536 -0.992709 0
    outer loop
      vertex -49.0179 2.47083 0
      vertex -50.9184 2.24006 -2
      vertex -49.0179 2.47083 -2
    endloop
  endfacet
  facet normal -0.748511 -0.663123 0
    outer loop
      vertex -45.9582 0.358892 -2
      vertex -47.2277 1.79193 0
      vertex -47.2277 1.79193 -2
    endloop
  endfacet
  facet normal -0.748511 -0.663123 0
    outer loop
      vertex -47.2277 1.79193 0
      vertex -45.9582 0.358892 -2
      vertex -45.9582 0.358892 0
    endloop
  endfacet
  facet normal 0.568065 -0.822984 0
    outer loop
      vertex -52.494 1.15249 -2
      vertex -50.9184 2.24006 0
      vertex -52.494 1.15249 0
    endloop
  endfacet
  facet normal 0.568065 -0.822984 0
    outer loop
      vertex -50.9184 2.24006 0
      vertex -52.494 1.15249 -2
      vertex -50.9184 2.24006 -2
    endloop
  endfacet
  facet normal -0.970942 0.239316 0
    outer loop
      vertex -45.9582 -3.35889 -2
      vertex -45.5 -1.5 0
      vertex -45.5 -1.5 -2
    endloop
  endfacet
  facet normal -0.970942 0.239316 0
    outer loop
      vertex -45.5 -1.5 0
      vertex -45.9582 -3.35889 -2
      vertex -45.9582 -3.35889 0
    endloop
  endfacet
  facet normal -0.354605 -0.935016 0
    outer loop
      vertex -49.0179 2.47083 -2
      vertex -47.2277 1.79193 0
      vertex -49.0179 2.47083 0
    endloop
  endfacet
  facet normal -0.354605 -0.935016 -0
    outer loop
      vertex -47.2277 1.79193 0
      vertex -49.0179 2.47083 -2
      vertex -47.2277 1.79193 -2
    endloop
  endfacet
  facet normal 0.885456 0.464723 0
    outer loop
      vertex -52.494 -4.15249 0
      vertex -53.3838 -2.45726 -2
      vertex -53.3838 -2.45726 0
    endloop
  endfacet
  facet normal 0.885456 0.464723 0
    outer loop
      vertex -53.3838 -2.45726 -2
      vertex -52.494 -4.15249 0
      vertex -52.494 -4.15249 -2
    endloop
  endfacet
  facet normal -0.748511 0.663123 0
    outer loop
      vertex -47.2277 -4.79193 -2
      vertex -45.9582 -3.35889 0
      vertex -45.9582 -3.35889 -2
    endloop
  endfacet
  facet normal -0.748511 0.663123 0
    outer loop
      vertex -45.9582 -3.35889 0
      vertex -47.2277 -4.79193 -2
      vertex -47.2277 -4.79193 0
    endloop
  endfacet
  facet normal 0.885456 -0.464723 0
    outer loop
      vertex -53.3838 -0.542738 0
      vertex -52.494 1.15249 -2
      vertex -52.494 1.15249 0
    endloop
  endfacet
  facet normal 0.885456 -0.464723 0
    outer loop
      vertex -52.494 1.15249 -2
      vertex -53.3838 -0.542738 0
      vertex -53.3838 -0.542738 -2
    endloop
  endfacet
  facet normal 0.568065 0.822984 -0
    outer loop
      vertex -50.9184 -5.24006 -2
      vertex -52.494 -4.15249 0
      vertex -50.9184 -5.24006 0
    endloop
  endfacet
  facet normal 0.568065 0.822984 0
    outer loop
      vertex -52.494 -4.15249 0
      vertex -50.9184 -5.24006 -2
      vertex -52.494 -4.15249 -2
    endloop
  endfacet
  facet normal -0.354605 0.935016 0
    outer loop
      vertex -47.2277 -4.79193 -2
      vertex -49.0179 -5.47083 0
      vertex -47.2277 -4.79193 0
    endloop
  endfacet
  facet normal -0.354605 0.935016 0
    outer loop
      vertex -49.0179 -5.47083 0
      vertex -47.2277 -4.79193 -2
      vertex -49.0179 -5.47083 -2
    endloop
  endfacet
  facet normal 0.120536 0.992709 -0
    outer loop
      vertex -49.0179 -5.47083 -2
      vertex -50.9184 -5.24006 0
      vertex -49.0179 -5.47083 0
    endloop
  endfacet
  facet normal 0.120536 0.992709 0
    outer loop
      vertex -50.9184 -5.24006 0
      vertex -49.0179 -5.47083 -2
      vertex -50.9184 -5.24006 -2
    endloop
  endfacet
  facet normal 0.662603 0.347761 -0.66334
    outer loop
      vertex -52.1975 -3.88981 0.433884
      vertex -52.494 -4.15249 0
      vertex -53.3838 -2.45726 0
    endloop
  endfacet
  facet normal 0.0148325 -0.122158 -0.9924
    outer loop
      vertex -49.5 0.75 0.805129
      vertex -49.1994 0.975775 0.781831
      vertex -49.2399 0.642256 0.822279
    endloop
  endfacet
  facet normal 0.0148326 -0.122158 -0.9924
    outer loop
      vertex -50.3844 0.831892 0.781831
      vertex -49.5 0.75 0.805129
      vertex -50.1453 0.482714 0.828386
    endloop
  endfacet
  facet normal 0.0148326 -0.122158 -0.9924
    outer loop
      vertex -49.5 0.75 0.805129
      vertex -50.3844 0.831892 0.781831
      vertex -49.1994 0.975775 0.781831
    endloop
  endfacet
  facet normal -0.0921078 -0.0816006 -0.9924
    outer loop
      vertex -47.909 0.0909901 0.803604
      vertex -47.2917 -0.341 0.781831
      vertex -47.6889 -0.440478 0.826872
    endloop
  endfacet
  facet normal -0.0921074 -0.0816002 -0.9924
    outer loop
      vertex -47.909 0.0909901 0.803604
      vertex -48.0833 0.552487 0.781831
      vertex -47.2917 -0.341 0.781831
    endloop
  endfacet
  facet normal -0.0921081 -0.0816004 -0.9924
    outer loop
      vertex -48.0833 0.552487 0.781831
      vertex -47.909 0.0909901 0.803604
      vertex -48.2922 0.249732 0.826121
    endloop
  endfacet
  facet normal 0.17454 0.252864 -0.951628
    outer loop
      vertex -51.3668 -3.1538 0.781831
      vertex -50.3844 -3.83189 0.781831
      vertex -52.1975 -3.88981 0.433884
    endloop
  endfacet
  facet normal -0.298326 0.0735309 -0.951628
    outer loop
      vertex -45.8961 -1.5 0.433884
      vertex -46.3089 -3.1748 0.433884
      vertex -47.2917 -2.659 0.781831
    endloop
  endfacet
  facet normal -0.560123 0.496226 -0.663342
    outer loop
      vertex -45.9582 -3.35889 0
      vertex -47.2277 -4.79193 0
      vertex -47.4528 -4.46593 0.433884
    endloop
  endfacet
  facet normal 0.10896 0.0571859 -0.9924
    outer loop
      vertex -51.5416 -2.0032 0.82894
      vertex -51.5034 -2.09527 0.827822
      vertex -51.9215 -2.09684 0.781831
    endloop
  endfacet
  facet normal 0.108961 0.057187 -0.9924
    outer loop
      vertex -51.3668 -3.1538 0.781831
      vertex -51.5034 -2.09527 0.827822
      vertex -51.146 -2.95822 0.81734
    endloop
  endfacet
  facet normal 0.10896 0.0571869 -0.9924
    outer loop
      vertex -51.5034 -2.09527 0.827822
      vertex -51.3668 -3.1538 0.781831
      vertex -51.9215 -2.09684 0.781831
    endloop
  endfacet
  facet normal -0.726571 0.179084 -0.663343
    outer loop
      vertex -45.8961 -1.5 0.433884
      vertex -45.5 -1.5 0
      vertex -46.3089 -3.1748 0.433884
    endloop
  endfacet
  facet normal 0.108961 -0.057187 -0.9924
    outer loop
      vertex -51.5034 -0.904731 0.827822
      vertex -51.3668 0.1538 0.781831
      vertex -51.146 -0.0417833 0.81734
    endloop
  endfacet
  facet normal 0.10896 -0.0571869 -0.9924
    outer loop
      vertex -51.3668 0.1538 0.781831
      vertex -51.5034 -0.904731 0.827822
      vertex -51.9215 -0.903157 0.781831
    endloop
  endfacet
  facet normal -0.560123 -0.496226 -0.663342
    outer loop
      vertex -47.2277 1.79193 0
      vertex -45.9582 0.358892 0
      vertex -47.4528 1.46593 0.433884
    endloop
  endfacet
  facet normal -0.0436359 -0.115058 -0.9924
    outer loop
      vertex -48.3812 0.286564 0.82576
      vertex -49.1994 0.975775 0.781831
      vertex -48.0833 0.552487 0.781831
    endloop
  endfacet
  facet normal -0.0436359 -0.115058 -0.9924
    outer loop
      vertex -49.1994 0.975775 0.781831
      vertex -48.3812 0.286564 0.82576
      vertex -49.2399 0.642256 0.822279
    endloop
  endfacet
  facet normal -0.108954 -0.287287 -0.951628
    outer loop
      vertex -47.4528 1.46593 0.433884
      vertex -48.0833 0.552487 0.781831
      vertex -49.1994 0.975775 0.781831
    endloop
  endfacet
  facet normal -0.265357 -0.699688 -0.663342
    outer loop
      vertex -47.2277 1.79193 0
      vertex -47.4528 1.46593 0.433884
      vertex -49.0179 2.47083 0
    endloop
  endfacet
  facet normal -0.298325 -0.0735304 -0.951628
    outer loop
      vertex -45.8961 -1.5 0.433884
      vertex -47.006 -1.5 0.781831
      vertex -47.2917 -0.341 0.781831
    endloop
  endfacet
  facet normal 0.748318 0 -0.663341
    outer loop
      vertex -52.9992 -2.36246 0.433884
      vertex -53.3838 -0.542738 0
      vertex -52.9992 -0.637537 0.433884
    endloop
  endfacet
  facet normal 0.748318 0 -0.663341
    outer loop
      vertex -53.3838 -0.542738 0
      vertex -52.9992 -2.36246 0.433884
      vertex -53.3838 -2.45726 0
    endloop
  endfacet
  facet normal 0.10896 -0.0571859 -0.9924
    outer loop
      vertex -51.5034 -0.904731 0.827822
      vertex -51.5416 -0.996799 0.82894
      vertex -51.9215 -0.903157 0.781831
    endloop
  endfacet
  facet normal -0.265357 0.699688 -0.663342
    outer loop
      vertex -47.4528 -4.46593 0.433884
      vertex -49.0179 -5.47083 0
      vertex -49.0656 -5.0776 0.433884
    endloop
  endfacet
  facet normal -0.229983 0.203747 -0.951628
    outer loop
      vertex -47.2917 -2.659 0.781831
      vertex -46.3089 -3.1748 0.433884
      vertex -47.4528 -4.46593 0.433884
    endloop
  endfacet
  facet normal 0.0370354 0.305013 -0.951628
    outer loop
      vertex -50.3844 -3.83189 0.781831
      vertex -49.0656 -5.0776 0.433884
      vertex -50.778 -4.86968 0.433884
    endloop
  endfacet
  facet normal -0.0921078 -0.0816004 -0.9924
    outer loop
      vertex -47.2917 -0.341 0.781831
      vertex -47.6518 -0.529986 0.830791
      vertex -47.6889 -0.440478 0.826872
    endloop
  endfacet
  facet normal -0.119479 -0.0294493 -0.9924
    outer loop
      vertex -47.613 -0.623528 0.828902
      vertex -47.006 -1.5 0.781831
      vertex -47.25 -1.5 0.811202
    endloop
  endfacet
  facet normal -0.119479 -0.0294488 -0.9924
    outer loop
      vertex -47.006 -1.5 0.781831
      vertex -47.613 -0.623528 0.828902
      vertex -47.2917 -0.341 0.781831
    endloop
  endfacet
  facet normal -0.298326 -0.0735309 -0.951628
    outer loop
      vertex -46.3089 0.174804 0.433884
      vertex -45.8961 -1.5 0.433884
      vertex -47.2917 -0.341 0.781831
    endloop
  endfacet
  facet normal -0.726571 -0.179084 -0.663343
    outer loop
      vertex -45.5 -1.5 0
      vertex -45.8961 -1.5 0.433884
      vertex -46.3089 0.174804 0.433884
    endloop
  endfacet
  facet normal -0.108954 -0.287287 -0.951628
    outer loop
      vertex -49.0656 2.0776 0.433884
      vertex -47.4528 1.46593 0.433884
      vertex -49.1994 0.975775 0.781831
    endloop
  endfacet
  facet normal -0.265357 -0.699688 -0.663342
    outer loop
      vertex -49.0179 2.47083 0
      vertex -47.4528 1.46593 0.433884
      vertex -49.0656 2.0776 0.433884
    endloop
  endfacet
  facet normal 0.0901997 -0.74286 -0.663342
    outer loop
      vertex -49.0656 2.0776 0.433884
      vertex -50.778 1.86968 0.433884
      vertex -50.9184 2.24006 0
    endloop
  endfacet
  facet normal 0.662602 0.34776 -0.663341
    outer loop
      vertex -52.9992 -2.36246 0.433884
      vertex -52.1975 -3.88981 0.433884
      vertex -53.3838 -2.45726 0
    endloop
  endfacet
  facet normal -0.560122 -0.496224 -0.663344
    outer loop
      vertex -45.9582 0.358892 0
      vertex -46.3089 0.174804 0.433884
      vertex -47.4528 1.46593 0.433884
    endloop
  endfacet
  facet normal -0.72657 -0.179083 -0.663344
    outer loop
      vertex -45.9582 0.358892 0
      vertex -45.5 -1.5 0
      vertex -46.3089 0.174804 0.433884
    endloop
  endfacet
  facet normal 0.0370353 -0.305013 -0.951628
    outer loop
      vertex -49.0656 2.0776 0.433884
      vertex -49.1994 0.975775 0.781831
      vertex -50.3844 0.831892 0.781831
    endloop
  endfacet
  facet normal 0.17454 0.252865 -0.951628
    outer loop
      vertex -50.3844 -3.83189 0.781831
      vertex -50.778 -4.86968 0.433884
      vertex -52.1975 -3.88981 0.433884
    endloop
  endfacet
  facet normal -0.0436359 0.115058 -0.9924
    outer loop
      vertex -49.1994 -3.97577 0.781831
      vertex -48.3812 -3.28656 0.82576
      vertex -48.0833 -3.55249 0.781831
    endloop
  endfacet
  facet normal -0.0436359 0.115058 -0.9924
    outer loop
      vertex -48.3812 -3.28656 0.82576
      vertex -49.1994 -3.97577 0.781831
      vertex -49.2399 -3.64226 0.822279
    endloop
  endfacet
  facet normal 0.0148325 0.122158 -0.9924
    outer loop
      vertex -49.1994 -3.97577 0.781831
      vertex -49.5 -3.75 0.805129
      vertex -49.2399 -3.64226 0.822279
    endloop
  endfacet
  facet normal 0.0148326 0.122158 -0.9924
    outer loop
      vertex -50.3844 -3.83189 0.781831
      vertex -49.5 -3.75 0.805129
      vertex -49.1994 -3.97577 0.781831
    endloop
  endfacet
  facet normal 0.0148326 0.122158 -0.9924
    outer loop
      vertex -49.5 -3.75 0.805129
      vertex -50.3844 -3.83189 0.781831
      vertex -50.1453 -3.48271 0.828386
    endloop
  endfacet
  facet normal 0.425092 0.615853 -0.663341
    outer loop
      vertex -52.1975 -3.88981 0.433884
      vertex -50.778 -4.86968 0.433884
      vertex -52.494 -4.15249 0
    endloop
  endfacet
  facet normal 0.0901997 0.74286 -0.663342
    outer loop
      vertex -50.778 -4.86968 0.433884
      vertex -49.0656 -5.0776 0.433884
      vertex -50.9184 -5.24006 0
    endloop
  endfacet
  facet normal 0.425092 0.615852 -0.663342
    outer loop
      vertex -50.778 -4.86968 0.433884
      vertex -50.9184 -5.24006 0
      vertex -52.494 -4.15249 0
    endloop
  endfacet
  facet normal -0.560122 0.496224 -0.663344
    outer loop
      vertex -46.3089 -3.1748 0.433884
      vertex -45.9582 -3.35889 0
      vertex -47.4528 -4.46593 0.433884
    endloop
  endfacet
  facet normal -0.72657 0.179083 -0.663344
    outer loop
      vertex -45.5 -1.5 0
      vertex -45.9582 -3.35889 0
      vertex -46.3089 -3.1748 0.433884
    endloop
  endfacet
  facet normal -0.298325 0.0735304 -0.951628
    outer loop
      vertex -47.006 -1.5 0.781831
      vertex -45.8961 -1.5 0.433884
      vertex -47.2917 -2.659 0.781831
    endloop
  endfacet
  facet normal -0.119479 0.0294488 -0.9924
    outer loop
      vertex -47.613 -2.37647 0.828902
      vertex -47.006 -1.5 0.781831
      vertex -47.2917 -2.659 0.781831
    endloop
  endfacet
  facet normal -0.119479 0.0294493 -0.9924
    outer loop
      vertex -47.006 -1.5 0.781831
      vertex -47.613 -2.37647 0.828902
      vertex -47.25 -1.5 0.811202
    endloop
  endfacet
  facet normal -0.0436357 -0.115058 -0.9924
    outer loop
      vertex -48.0833 0.552487 0.781831
      vertex -48.2922 0.249732 0.826121
      vertex -48.3812 0.286564 0.82576
    endloop
  endfacet
  facet normal -0.119479 -0.0294483 -0.9924
    outer loop
      vertex -47.2917 -0.341 0.781831
      vertex -47.613 -0.623528 0.828902
      vertex -47.6518 -0.529986 0.830791
    endloop
  endfacet
  facet normal 0.27206 0.142788 -0.951628
    outer loop
      vertex -51.9215 -2.09684 0.781831
      vertex -52.1975 -3.88981 0.433884
      vertex -52.9992 -2.36246 0.433884
    endloop
  endfacet
  facet normal 0.272058 0.142788 -0.951628
    outer loop
      vertex -51.9215 -2.09684 0.781831
      vertex -51.3668 -3.1538 0.781831
      vertex -52.1975 -3.88981 0.433884
    endloop
  endfacet
  facet normal 0.425092 -0.615853 -0.663341
    outer loop
      vertex -50.778 1.86968 0.433884
      vertex -52.1975 0.889811 0.433884
      vertex -52.494 1.15249 0
    endloop
  endfacet
  facet normal 0.0148328 0.122158 -0.9924
    outer loop
      vertex -50.2375 -3.44453 0.831708
      vertex -50.1453 -3.48271 0.828386
      vertex -50.3844 -3.83189 0.781831
    endloop
  endfacet
  facet normal 0.0699032 0.101272 -0.9924
    outer loop
      vertex -50.3844 -3.83189 0.781831
      vertex -51.091 -3.09099 0.807665
      vertex -50.331 -3.40579 0.829073
    endloop
  endfacet
  facet normal 0.0699026 0.101274 -0.9924
    outer loop
      vertex -51.091 -3.09099 0.807665
      vertex -51.3668 -3.1538 0.781831
      vertex -51.146 -2.95822 0.81734
    endloop
  endfacet
  facet normal 0.0699031 0.101272 -0.9924
    outer loop
      vertex -51.3668 -3.1538 0.781831
      vertex -51.091 -3.09099 0.807665
      vertex -50.3844 -3.83189 0.781831
    endloop
  endfacet
  facet normal -0.265357 0.699688 -0.663342
    outer loop
      vertex -47.4528 -4.46593 0.433884
      vertex -47.2277 -4.79193 0
      vertex -49.0179 -5.47083 0
    endloop
  endfacet
  facet normal -0.108954 0.287287 -0.951628
    outer loop
      vertex -47.4528 -4.46593 0.433884
      vertex -49.0656 -5.0776 0.433884
      vertex -49.1994 -3.97577 0.781831
    endloop
  endfacet
  facet normal 0.0370353 0.305013 -0.951628
    outer loop
      vertex -49.1994 -3.97577 0.781831
      vertex -49.0656 -5.0776 0.433884
      vertex -50.3844 -3.83189 0.781831
    endloop
  endfacet
  facet normal 0.0901995 0.742861 -0.663341
    outer loop
      vertex -49.0656 -5.0776 0.433884
      vertex -49.0179 -5.47083 0
      vertex -50.9184 -5.24006 0
    endloop
  endfacet
  facet normal -0.108954 0.287287 -0.951628
    outer loop
      vertex -48.0833 -3.55249 0.781831
      vertex -47.4528 -4.46593 0.433884
      vertex -49.1994 -3.97577 0.781831
    endloop
  endfacet
  facet normal -0.119479 0.0294483 -0.9924
    outer loop
      vertex -47.613 -2.37647 0.828902
      vertex -47.2917 -2.659 0.781831
      vertex -47.6518 -2.47001 0.830791
    endloop
  endfacet
  facet normal -0.229982 0.203747 -0.951628
    outer loop
      vertex -47.2917 -2.659 0.781831
      vertex -47.4528 -4.46593 0.433884
      vertex -48.0833 -3.55249 0.781831
    endloop
  endfacet
  facet normal -0.0436358 0.115058 -0.9924
    outer loop
      vertex -48.2922 -3.24973 0.826121
      vertex -48.0833 -3.55249 0.781831
      vertex -48.3812 -3.28656 0.82576
    endloop
  endfacet
  facet normal -0.229983 -0.203747 -0.951628
    outer loop
      vertex -46.3089 0.174804 0.433884
      vertex -47.2917 -0.341 0.781831
      vertex -47.4528 1.46593 0.433884
    endloop
  endfacet
  facet normal -0.229982 -0.203747 -0.951628
    outer loop
      vertex -47.4528 1.46593 0.433884
      vertex -47.2917 -0.341 0.781831
      vertex -48.0833 0.552487 0.781831
    endloop
  endfacet
  facet normal 0.0699049 0.101272 -0.9924
    outer loop
      vertex -50.331 -3.40579 0.829073
      vertex -50.2375 -3.44453 0.831708
      vertex -50.3844 -3.83189 0.781831
    endloop
  endfacet
  facet normal -0.0921078 0.0816006 -0.9924
    outer loop
      vertex -47.2917 -2.659 0.781831
      vertex -47.909 -3.09099 0.803604
      vertex -47.6889 -2.55952 0.826872
    endloop
  endfacet
  facet normal -0.0921074 0.0816002 -0.9924
    outer loop
      vertex -48.0833 -3.55249 0.781831
      vertex -47.909 -3.09099 0.803604
      vertex -47.2917 -2.659 0.781831
    endloop
  endfacet
  facet normal -0.0921081 0.0816004 -0.9924
    outer loop
      vertex -47.909 -3.09099 0.803604
      vertex -48.0833 -3.55249 0.781831
      vertex -48.2922 -3.24973 0.826121
    endloop
  endfacet
  facet normal -0.0921078 0.0816003 -0.9924
    outer loop
      vertex -47.6518 -2.47001 0.830791
      vertex -47.2917 -2.659 0.781831
      vertex -47.6889 -2.55952 0.826872
    endloop
  endfacet
  facet normal 0.123055 -2.36118e-07 -0.9924
    outer loop
      vertex -51.5416 -2.0032 0.82894
      vertex -51.9215 -2.09684 0.781831
      vertex -51.75 -1.5 0.803095
    endloop
  endfacet
  facet normal 0.123055 2.36118e-07 -0.9924
    outer loop
      vertex -51.75 -1.5 0.803095
      vertex -51.9215 -0.903157 0.781831
      vertex -51.5416 -0.996799 0.82894
    endloop
  endfacet
  facet normal 0.123054 0 -0.9924
    outer loop
      vertex -51.9215 -0.903157 0.781831
      vertex -51.75 -1.5 0.803095
      vertex -51.9215 -2.09684 0.781831
    endloop
  endfacet
  facet normal 0.0370354 -0.305013 -0.951628
    outer loop
      vertex -49.0656 2.0776 0.433884
      vertex -50.3844 0.831892 0.781831
      vertex -50.778 1.86968 0.433884
    endloop
  endfacet
  facet normal 0.662602 -0.34776 -0.663341
    outer loop
      vertex -52.1975 0.889811 0.433884
      vertex -52.9992 -0.637537 0.433884
      vertex -53.3838 -0.542738 0
    endloop
  endfacet
  facet normal 0.425092 -0.615852 -0.663342
    outer loop
      vertex -50.9184 2.24006 0
      vertex -50.778 1.86968 0.433884
      vertex -52.494 1.15249 0
    endloop
  endfacet
  facet normal 0.27206 -0.142788 -0.951628
    outer loop
      vertex -52.1975 0.889811 0.433884
      vertex -51.9215 -0.903157 0.781831
      vertex -52.9992 -0.637537 0.433884
    endloop
  endfacet
  facet normal 0.0699049 -0.101272 -0.9924
    outer loop
      vertex -50.2375 0.444532 0.831708
      vertex -50.331 0.405787 0.829073
      vertex -50.3844 0.831892 0.781831
    endloop
  endfacet
  facet normal 0.0699032 -0.101272 -0.9924
    outer loop
      vertex -51.091 0.0909901 0.807665
      vertex -50.3844 0.831892 0.781831
      vertex -50.331 0.405787 0.829073
    endloop
  endfacet
  facet normal 0.0699031 -0.101272 -0.9924
    outer loop
      vertex -51.091 0.0909901 0.807665
      vertex -51.3668 0.1538 0.781831
      vertex -50.3844 0.831892 0.781831
    endloop
  endfacet
  facet normal 0.0699026 -0.101274 -0.9924
    outer loop
      vertex -51.3668 0.1538 0.781831
      vertex -51.091 0.0909901 0.807665
      vertex -51.146 -0.0417833 0.81734
    endloop
  endfacet
  facet normal 0.17454 -0.252864 -0.951628
    outer loop
      vertex -50.3844 0.831892 0.781831
      vertex -51.3668 0.1538 0.781831
      vertex -52.1975 0.889811 0.433884
    endloop
  endfacet
  facet normal 0.272058 -0.142788 -0.951628
    outer loop
      vertex -51.3668 0.1538 0.781831
      vertex -51.9215 -0.903157 0.781831
      vertex -52.1975 0.889811 0.433884
    endloop
  endfacet
  facet normal 0.662603 -0.347761 -0.66334
    outer loop
      vertex -52.494 1.15249 0
      vertex -52.1975 0.889811 0.433884
      vertex -53.3838 -0.542738 0
    endloop
  endfacet
  facet normal 0.17454 -0.252865 -0.951628
    outer loop
      vertex -50.778 1.86968 0.433884
      vertex -50.3844 0.831892 0.781831
      vertex -52.1975 0.889811 0.433884
    endloop
  endfacet
  facet normal 0.0148328 -0.122158 -0.9924
    outer loop
      vertex -50.1453 0.482714 0.828386
      vertex -50.2375 0.444532 0.831708
      vertex -50.3844 0.831892 0.781831
    endloop
  endfacet
  facet normal 0.307254 0 -0.951628
    outer loop
      vertex -52.9992 -2.36246 0.433884
      vertex -51.9215 -0.903157 0.781831
      vertex -51.9215 -2.09684 0.781831
    endloop
  endfacet
  facet normal 0.307254 0 -0.951628
    outer loop
      vertex -51.9215 -0.903157 0.781831
      vertex -52.9992 -2.36246 0.433884
      vertex -52.9992 -0.637537 0.433884
    endloop
  endfacet
  facet normal 0.0901995 -0.742861 -0.663341
    outer loop
      vertex -49.0179 2.47083 0
      vertex -49.0656 2.0776 0.433884
      vertex -50.9184 2.24006 0
    endloop
  endfacet
endsolid OpenSCAD_Model
