solid OpenSCAD_Model
  facet normal -1 0 0
    outer loop
      vertex 24.5 48 -3
      vertex 24.5 -18 0
      vertex 24.5 48 17
    endloop
  endfacet
  facet normal -1 0 0
    outer loop
      vertex 24.5 -53 -3
      vertex 24.5 -18 0
      vertex 24.5 48 -3
    endloop
  endfacet
  facet normal -1 -0 0
    outer loop
      vertex 24.5 -18 0
      vertex 24.5 -53 -3
      vertex 24.5 -53 0
    endloop
  endfacet
  facet normal -1 -0 0
    outer loop
      vertex 24.5 48 17
      vertex 24.5 -18 0
      vertex 24.5 -18 17
    endloop
  endfacet
  facet normal 0 1 -0
    outer loop
      vertex 54.5 -2 -3
      vertex 34.5 -2 17
      vertex 54.5 -2 17
    endloop
  endfacet
  facet normal 0 1 0
    outer loop
      vertex 34.5 -2 17
      vertex 54.5 -2 -3
      vertex 34.5 -2 -3
    endloop
  endfacet
  facet normal 1 0 0
    outer loop
      vertex -24.5 -18 0
      vertex -24.5 48 17
      vertex -24.5 -18 17
    endloop
  endfacet
  facet normal 1 0 0
    outer loop
      vertex -24.5 48 17
      vertex -24.5 -18 0
      vertex -24.5 48 -3
    endloop
  endfacet
  facet normal 1 0 0
    outer loop
      vertex -24.5 -53 -3
      vertex -24.5 -18 0
      vertex -24.5 -53 0
    endloop
  endfacet
  facet normal 1 0 0
    outer loop
      vertex -24.5 -18 0
      vertex -24.5 -53 -3
      vertex -24.5 48 -3
    endloop
  endfacet
  facet normal 0 1 -0
    outer loop
      vertex -34.5 -2 -3
      vertex -54.5 -2 17
      vertex -34.5 -2 17
    endloop
  endfacet
  facet normal 0 1 0
    outer loop
      vertex -54.5 -2 17
      vertex -34.5 -2 -3
      vertex -54.5 -2 -3
    endloop
  endfacet
  facet normal -1 0 0
    outer loop
      vertex -54.5 -56 -3
      vertex -54.5 -2 17
      vertex -54.5 -2 -3
    endloop
  endfacet
  facet normal -1 -0 0
    outer loop
      vertex -54.5 -2 17
      vertex -54.5 -56 -3
      vertex -54.5 -56 17
    endloop
  endfacet
  facet normal 0 0 1
    outer loop
      vertex -29.5 -5 0
      vertex -44.5 -16 0
      vertex -29.5 -18 0
    endloop
  endfacet
  facet normal -0 0 1
    outer loop
      vertex -50.5 -5 0
      vertex -44.5 -16 0
      vertex -29.5 -5 0
    endloop
  endfacet
  facet normal 0 0 1
    outer loop
      vertex -44.5 -16 0
      vertex -50.5 -5 0
      vertex -50.5 -16 0
    endloop
  endfacet
  facet normal -0 0 1
    outer loop
      vertex -29.5 -18 0
      vertex -24.5 -53 0
      vertex -24.5 -18 0
    endloop
  endfacet
  facet normal 0 0 1
    outer loop
      vertex -44.5 -53 0
      vertex -29.5 -18 0
      vertex -44.5 -16 0
    endloop
  endfacet
  facet normal 0 0 1
    outer loop
      vertex -29.5 -18 0
      vertex -44.5 -53 0
      vertex -24.5 -53 0
    endloop
  endfacet
  facet normal 0 0 1
    outer loop
      vertex 50.5 -5 0
      vertex 44.5 -16 0
      vertex 50.5 -16 0
    endloop
  endfacet
  facet normal -0 0 1
    outer loop
      vertex 38.5 -35 0
      vertex 44.5 -53 0
      vertex 44.5 -16 0
    endloop
  endfacet
  facet normal 0 0 1
    outer loop
      vertex 44.5 -53 0
      vertex 38.5 -35 0
      vertex 40 -45 0
    endloop
  endfacet
  facet normal 0 0 1
    outer loop
      vertex 44.5 -16 0
      vertex 37.9444 -33.1078 0
      vertex 38.5 -35 0
    endloop
  endfacet
  facet normal 0 0 1
    outer loop
      vertex 44.5 -16 0
      vertex 36.454 -31.8163 0
      vertex 37.9444 -33.1078 0
    endloop
  endfacet
  facet normal -0 0 1
    outer loop
      vertex 29.5 -18 0
      vertex 36.454 -31.8163 0
      vertex 44.5 -16 0
    endloop
  endfacet
  facet normal -0 0 1
    outer loop
      vertex 29.5 -5 0
      vertex 44.5 -16 0
      vertex 50.5 -5 0
    endloop
  endfacet
  facet normal 0 0 1
    outer loop
      vertex 36.454 -31.8163 0
      vertex 29.5 -18 0
      vertex 34.5019 -31.5356 0
    endloop
  endfacet
  facet normal 0 0 1
    outer loop
      vertex 24.5 -18 0
      vertex 31.6418 -35.9861 0
      vertex 31.6418 -34.0139 0
    endloop
  endfacet
  facet normal 0 0 1
    outer loop
      vertex 24.5 -53 0
      vertex 30 -47 0
      vertex 30 -45 0
    endloop
  endfacet
  facet normal 0 0 1
    outer loop
      vertex 32.708 -32.3549 0
      vertex 24.5 -18 0
      vertex 31.6418 -34.0139 0
    endloop
  endfacet
  facet normal -0 0 1
    outer loop
      vertex 24.5 -18 0
      vertex 32.708 -32.3549 0
      vertex 29.5 -18 0
    endloop
  endfacet
  facet normal 0 0 1
    outer loop
      vertex 34.5019 -31.5356 0
      vertex 29.5 -18 0
      vertex 32.708 -32.3549 0
    endloop
  endfacet
  facet normal 0 0 1
    outer loop
      vertex 44.5 -16 0
      vertex 29.5 -5 0
      vertex 29.5 -18 0
    endloop
  endfacet
  facet normal -0 0 1
    outer loop
      vertex 40 -47 0
      vertex 44.5 -53 0
      vertex 40 -45 0
    endloop
  endfacet
  facet normal -0 0 1
    outer loop
      vertex 40 -52 0
      vertex 44.5 -53 0
      vertex 40 -47 0
    endloop
  endfacet
  facet normal -0 0 1
    outer loop
      vertex 30 -52 0
      vertex 44.5 -53 0
      vertex 40 -52 0
    endloop
  endfacet
  facet normal 0 0 1
    outer loop
      vertex 31.6418 -35.9861 0
      vertex 24.5 -18 0
      vertex 24.5 -53 0
    endloop
  endfacet
  facet normal 0 0 1
    outer loop
      vertex 31.6418 -35.9861 0
      vertex 24.5 -53 0
      vertex 30 -45 0
    endloop
  endfacet
  facet normal 0 0 1
    outer loop
      vertex 30 -52 0
      vertex 24.5 -53 0
      vertex 44.5 -53 0
    endloop
  endfacet
  facet normal 0 0 1
    outer loop
      vertex 30 -47 0
      vertex 24.5 -53 0
      vertex 30 -52 0
    endloop
  endfacet
  facet normal -0 0 1
    outer loop
      vertex 37.9444 -36.8922 0
      vertex 40 -45 0
      vertex 38.5 -35 0
    endloop
  endfacet
  facet normal -0 0 1
    outer loop
      vertex 36.454 -38.1837 0
      vertex 40 -45 0
      vertex 37.9444 -36.8922 0
    endloop
  endfacet
  facet normal -0 0 1
    outer loop
      vertex 34.5019 -38.4644 0
      vertex 40 -45 0
      vertex 36.454 -38.1837 0
    endloop
  endfacet
  facet normal 0 0 1
    outer loop
      vertex 30 -45 0
      vertex 34.5019 -38.4644 0
      vertex 32.708 -37.6451 0
    endloop
  endfacet
  facet normal 0 0 1
    outer loop
      vertex 34.5019 -38.4644 0
      vertex 30 -45 0
      vertex 40 -45 0
    endloop
  endfacet
  facet normal 0 0 1
    outer loop
      vertex 30 -45 0
      vertex 32.708 -37.6451 0
      vertex 31.6418 -35.9861 0
    endloop
  endfacet
  facet normal 1 -0 0
    outer loop
      vertex 54.5 -56 17
      vertex 54.5 -2 -3
      vertex 54.5 -2 17
    endloop
  endfacet
  facet normal 1 0 0
    outer loop
      vertex 54.5 -2 -3
      vertex 54.5 -56 17
      vertex 54.5 -56 -3
    endloop
  endfacet
  facet normal 0 0 -1
    outer loop
      vertex 40 -47 -3
      vertex 37.9444 -36.8922 -3
      vertex 38.5 -35 -3
    endloop
  endfacet
  facet normal 0 0 -1
    outer loop
      vertex 40 -47 -3
      vertex 36.454 -38.1837 -3
      vertex 37.9444 -36.8922 -3
    endloop
  endfacet
  facet normal 0 0 -1
    outer loop
      vertex 40 -47 -3
      vertex 34.5019 -38.4644 -3
      vertex 36.454 -38.1837 -3
    endloop
  endfacet
  facet normal 0 0 -1
    outer loop
      vertex 30 -47 -3
      vertex 34.5019 -38.4644 -3
      vertex 40 -47 -3
    endloop
  endfacet
  facet normal 0 0 -1
    outer loop
      vertex 24.5 -53 -3
      vertex 31.6418 -34.0139 -3
      vertex 31.6418 -35.9861 -3
    endloop
  endfacet
  facet normal 0 0 -1
    outer loop
      vertex 31.6418 -34.0139 -3
      vertex 24.5 48 -3
      vertex 31.373 52.1359 -3
    endloop
  endfacet
  facet normal -0 0 -1
    outer loop
      vertex 31.373 52.1359 -3
      vertex 24.5 48 -3
      vertex 31.0451 52.2553 -3
    endloop
  endfacet
  facet normal -0 0 -1
    outer loop
      vertex 31.0451 52.2553 -3
      vertex 24.5 48 -3
      vertex 30.7096 52.3515 -3
    endloop
  endfacet
  facet normal -0 0 -1
    outer loop
      vertex 30.7096 52.3515 -3
      vertex 24.5 48 -3
      vertex 30.3682 52.424 -3
    endloop
  endfacet
  facet normal -0 0 -1
    outer loop
      vertex 34.5019 -38.4644 -3
      vertex 30 -47 -3
      vertex 32.708 -37.6451 -3
    endloop
  endfacet
  facet normal 0 0 -1
    outer loop
      vertex 30 -47 -3
      vertex 31.6418 -35.9861 -3
      vertex 32.708 -37.6451 -3
    endloop
  endfacet
  facet normal 0 0 -1
    outer loop
      vertex 24.5 -53 -3
      vertex 31.6418 -35.9861 -3
      vertex 30 -47 -3
    endloop
  endfacet
  facet normal -0 0 -1
    outer loop
      vertex 30.3682 52.424 -3
      vertex 24.5 48 -3
      vertex 30.0226 52.4726 -3
    endloop
  endfacet
  facet normal 0 0 -1
    outer loop
      vertex 40 -47 -3
      vertex 54.5 -56 -3
      vertex 40 -52 -3
    endloop
  endfacet
  facet normal 0 0 -1
    outer loop
      vertex 24.5 -53 -3
      vertex 40 -52 -3
      vertex 54.5 -56 -3
    endloop
  endfacet
  facet normal 0 0 -1
    outer loop
      vertex 24.5 -53 -3
      vertex 30 -47 -3
      vertex 30 -52 -3
    endloop
  endfacet
  facet normal 0 -0 -1
    outer loop
      vertex 29.5 52.497 -3
      vertex 30.0226 52.4726 -3
      vertex 24.5 48 -3
    endloop
  endfacet
  facet normal 0 0 -1
    outer loop
      vertex 30.0226 52.4726 -3
      vertex 29.5 52.497 -3
      vertex 29.6745 52.497 -3
    endloop
  endfacet
  facet normal -0 0 -1
    outer loop
      vertex 31.6418 -34.0139 -3
      vertex 24.5 -53 -3
      vertex 24.5 48 -3
    endloop
  endfacet
  facet normal -0 0 -1
    outer loop
      vertex 40 -52 -3
      vertex 24.5 -53 -3
      vertex 30 -52 -3
    endloop
  endfacet
  facet normal 0 0 -1
    outer loop
      vertex 54.5 -56 -3
      vertex -24.5 -53 -3
      vertex 24.5 -53 -3
    endloop
  endfacet
  facet normal 0 0 -1
    outer loop
      vertex -34.5 -2 -3
      vertex -24.5 48 -3
      vertex -24.5 -53 -3
    endloop
  endfacet
  facet normal 0 -0 -1
    outer loop
      vertex -34.4719 48 -3
      vertex -24.5 48 -3
      vertex -34.5 -2 -3
    endloop
  endfacet
  facet normal 0 0 -1
    outer loop
      vertex -24.5 48 -3
      vertex -34.4719 48 -3
      vertex -29.5 52.497 -3
    endloop
  endfacet
  facet normal 0 -0 -1
    outer loop
      vertex -30.0226 52.4726 -3
      vertex -29.5 52.497 -3
      vertex -34.4719 48 -3
    endloop
  endfacet
  facet normal -0 0 -1
    outer loop
      vertex -29.5 52.497 -3
      vertex -30.0226 52.4726 -3
      vertex -29.6745 52.497 -3
    endloop
  endfacet
  facet normal 0 0 -1
    outer loop
      vertex -30.0226 52.4726 -3
      vertex -34.4719 48 -3
      vertex -30.3682 52.424 -3
    endloop
  endfacet
  facet normal 0 0 -1
    outer loop
      vertex -30.3682 52.424 -3
      vertex -34.4719 48 -3
      vertex -30.7096 52.3515 -3
    endloop
  endfacet
  facet normal 0 0 -1
    outer loop
      vertex -30.7096 52.3515 -3
      vertex -34.4719 48 -3
      vertex -31.0451 52.2553 -3
    endloop
  endfacet
  facet normal 0 0 -1
    outer loop
      vertex -31.0451 52.2553 -3
      vertex -34.4719 48 -3
      vertex -31.373 52.1359 -3
    endloop
  endfacet
  facet normal 0 0 -1
    outer loop
      vertex -31.373 52.1359 -3
      vertex -34.4719 48 -3
      vertex -31.6919 51.994 -3
    endloop
  endfacet
  facet normal 0 0 -1
    outer loop
      vertex -31.6919 51.994 -3
      vertex -34.4719 48 -3
      vertex -32 51.8301 -3
    endloop
  endfacet
  facet normal 0 0 -1
    outer loop
      vertex -32 51.8301 -3
      vertex -34.4719 48 -3
      vertex -32.296 51.6452 -3
    endloop
  endfacet
  facet normal 0 0 -1
    outer loop
      vertex -32.296 51.6452 -3
      vertex -34.4719 48 -3
      vertex -32.5783 51.4401 -3
    endloop
  endfacet
  facet normal 0 0 -1
    outer loop
      vertex -32.5783 51.4401 -3
      vertex -34.4719 48 -3
      vertex -32.8457 51.2157 -3
    endloop
  endfacet
  facet normal 0 0 -1
    outer loop
      vertex -32.8457 51.2157 -3
      vertex -34.4719 48 -3
      vertex -33.0967 50.9733 -3
    endloop
  endfacet
  facet normal 0 0 -1
    outer loop
      vertex -33.0967 50.9733 -3
      vertex -34.4719 48 -3
      vertex -33.3302 50.7139 -3
    endloop
  endfacet
  facet normal 0 0 -1
    outer loop
      vertex -33.3302 50.7139 -3
      vertex -34.4719 48 -3
      vertex -33.5451 50.4389 -3
    endloop
  endfacet
  facet normal 0 0 -1
    outer loop
      vertex -33.5451 50.4389 -3
      vertex -34.4719 48 -3
      vertex -33.7402 50.1496 -3
    endloop
  endfacet
  facet normal 0 0 -1
    outer loop
      vertex -33.7402 50.1496 -3
      vertex -34.4719 48 -3
      vertex -33.9147 49.8474 -3
    endloop
  endfacet
  facet normal 0 0 -1
    outer loop
      vertex -33.9147 49.8474 -3
      vertex -34.4719 48 -3
      vertex -34.0677 49.5337 -3
    endloop
  endfacet
  facet normal 0 0 -1
    outer loop
      vertex -34.0677 49.5337 -3
      vertex -34.4719 48 -3
      vertex -34.1985 49.2101 -3
    endloop
  endfacet
  facet normal 0 0 -1
    outer loop
      vertex -34.1985 49.2101 -3
      vertex -34.4719 48 -3
      vertex -34.3063 48.8782 -3
    endloop
  endfacet
  facet normal 0 0 -1
    outer loop
      vertex -34.3907 48.5396 -3
      vertex -34.4719 48 -3
      vertex -34.4513 48.1959 -3
    endloop
  endfacet
  facet normal 0 0 -1
    outer loop
      vertex -34.3063 48.8782 -3
      vertex -34.4719 48 -3
      vertex -34.3907 48.5396 -3
    endloop
  endfacet
  facet normal 0 0 -1
    outer loop
      vertex -54.5 -56 -3
      vertex -24.5 -53 -3
      vertex 54.5 -56 -3
    endloop
  endfacet
  facet normal 0 0 -1
    outer loop
      vertex -54.5 -56 -3
      vertex -34.5 -2 -3
      vertex -24.5 -53 -3
    endloop
  endfacet
  facet normal -0 0 -1
    outer loop
      vertex -34.5 -2 -3
      vertex -54.5 -56 -3
      vertex -54.5 -2 -3
    endloop
  endfacet
  facet normal 0 0 -1
    outer loop
      vertex 38.5 -35 -3
      vertex 54.5 -56 -3
      vertex 40 -47 -3
    endloop
  endfacet
  facet normal 0 0 -1
    outer loop
      vertex 54.5 -56 -3
      vertex 38.5 -35 -3
      vertex 54.5 -2 -3
    endloop
  endfacet
  facet normal 0 0 -1
    outer loop
      vertex 37.9444 -33.1078 -3
      vertex 54.5 -2 -3
      vertex 38.5 -35 -3
    endloop
  endfacet
  facet normal 0 0 -1
    outer loop
      vertex 36.454 -31.8163 -3
      vertex 54.5 -2 -3
      vertex 37.9444 -33.1078 -3
    endloop
  endfacet
  facet normal 0 0 -1
    outer loop
      vertex 34.5 -2 -3
      vertex 36.454 -31.8163 -3
      vertex 34.5019 -31.5356 -3
    endloop
  endfacet
  facet normal 0 0 -1
    outer loop
      vertex 36.454 -31.8163 -3
      vertex 34.5 -2 -3
      vertex 54.5 -2 -3
    endloop
  endfacet
  facet normal 0 0 -1
    outer loop
      vertex 34.5 -2 -3
      vertex 34.4719 48 -3
      vertex 34.5 48 -3
    endloop
  endfacet
  facet normal 0 0 -1
    outer loop
      vertex 32.708 -32.3549 -3
      vertex 34.5 -2 -3
      vertex 34.5019 -31.5356 -3
    endloop
  endfacet
  facet normal 0 0 -1
    outer loop
      vertex 31.6418 -34.0139 -3
      vertex 34.5 -2 -3
      vertex 32.708 -32.3549 -3
    endloop
  endfacet
  facet normal 0 0 -1
    outer loop
      vertex 34.5 -2 -3
      vertex 31.373 52.1359 -3
      vertex 34.4719 48 -3
    endloop
  endfacet
  facet normal -0 -0 -1
    outer loop
      vertex 34.3907 48.5396 -3
      vertex 34.4719 48 -3
      vertex 31.373 52.1359 -3
    endloop
  endfacet
  facet normal 0 0 -1
    outer loop
      vertex 34.4719 48 -3
      vertex 34.3907 48.5396 -3
      vertex 34.4513 48.1959 -3
    endloop
  endfacet
  facet normal 0 0 -1
    outer loop
      vertex 34.3907 48.5396 -3
      vertex 31.373 52.1359 -3
      vertex 34.3063 48.8782 -3
    endloop
  endfacet
  facet normal 0 0 -1
    outer loop
      vertex 34.3063 48.8782 -3
      vertex 31.373 52.1359 -3
      vertex 34.1985 49.2101 -3
    endloop
  endfacet
  facet normal 0 0 -1
    outer loop
      vertex 34.1985 49.2101 -3
      vertex 31.373 52.1359 -3
      vertex 34.0677 49.5337 -3
    endloop
  endfacet
  facet normal 0 0 -1
    outer loop
      vertex 34.0677 49.5337 -3
      vertex 31.373 52.1359 -3
      vertex 33.9147 49.8474 -3
    endloop
  endfacet
  facet normal 0 0 -1
    outer loop
      vertex 33.9147 49.8474 -3
      vertex 31.373 52.1359 -3
      vertex 33.7402 50.1496 -3
    endloop
  endfacet
  facet normal 0 0 -1
    outer loop
      vertex 33.7402 50.1496 -3
      vertex 31.373 52.1359 -3
      vertex 33.5451 50.4389 -3
    endloop
  endfacet
  facet normal 0 0 -1
    outer loop
      vertex 33.5451 50.4389 -3
      vertex 31.373 52.1359 -3
      vertex 33.3302 50.7139 -3
    endloop
  endfacet
  facet normal 0 0 -1
    outer loop
      vertex 33.3302 50.7139 -3
      vertex 31.373 52.1359 -3
      vertex 33.0967 50.9733 -3
    endloop
  endfacet
  facet normal 0 0 -1
    outer loop
      vertex 33.0967 50.9733 -3
      vertex 31.373 52.1359 -3
      vertex 32.8457 51.2157 -3
    endloop
  endfacet
  facet normal 0 0 -1
    outer loop
      vertex 32.8457 51.2157 -3
      vertex 31.373 52.1359 -3
      vertex 32.5783 51.4401 -3
    endloop
  endfacet
  facet normal 0 0 -1
    outer loop
      vertex 32.5783 51.4401 -3
      vertex 31.373 52.1359 -3
      vertex 32.296 51.6452 -3
    endloop
  endfacet
  facet normal 0 0 -1
    outer loop
      vertex 32.296 51.6452 -3
      vertex 31.373 52.1359 -3
      vertex 32 51.8301 -3
    endloop
  endfacet
  facet normal -0 0 -1
    outer loop
      vertex 34.5 -2 -3
      vertex 31.6418 -34.0139 -3
      vertex 31.373 52.1359 -3
    endloop
  endfacet
  facet normal 0 0 -1
    outer loop
      vertex 32 51.8301 -3
      vertex 31.373 52.1359 -3
      vertex 31.6919 51.994 -3
    endloop
  endfacet
  facet normal -0 0 -1
    outer loop
      vertex 29.5 52.497 -3
      vertex 24.5 48 -3
      vertex 29.5 52.5 -3
    endloop
  endfacet
  facet normal 0 0 -1
    outer loop
      vertex -24.5 48 -3
      vertex 29.5 52.5 -3
      vertex 24.5 48 -3
    endloop
  endfacet
  facet normal 0 0 -1
    outer loop
      vertex -29.5 52.5 -3
      vertex -24.5 48 -3
      vertex -29.5 52.497 -3
    endloop
  endfacet
  facet normal 0 0 -1
    outer loop
      vertex -24.5 48 -3
      vertex -29.5 52.5 -3
      vertex 29.5 52.5 -3
    endloop
  endfacet
  facet normal -0 0 -1
    outer loop
      vertex -34.4719 48 -3
      vertex -34.5 -2 -3
      vertex -34.5 48 -3
    endloop
  endfacet
  facet normal 0 1 -0
    outer loop
      vertex 44.5 -53 0
      vertex 24.5 -53 17
      vertex 44.5 -53 17
    endloop
  endfacet
  facet normal 0 1 0
    outer loop
      vertex 24.5 -53 17
      vertex 44.5 -53 0
      vertex 24.5 -53 0
    endloop
  endfacet
  facet normal 0 1 -0
    outer loop
      vertex -24.5 -53 0
      vertex -44.5 -53 17
      vertex -24.5 -53 17
    endloop
  endfacet
  facet normal 0 1 0
    outer loop
      vertex -44.5 -53 17
      vertex -24.5 -53 0
      vertex -44.5 -53 0
    endloop
  endfacet
  facet normal 0 1 0
    outer loop
      vertex 24.5 -53 17
      vertex 12.5 -53 5
      vertex 12.5 -53 17
    endloop
  endfacet
  facet normal 0 1 -0
    outer loop
      vertex 24.5 -53 -3
      vertex 12.5 -53 5
      vertex 24.5 -53 0
    endloop
  endfacet
  facet normal 0 1 -0
    outer loop
      vertex 24.5 -53 0
      vertex 12.5 -53 5
      vertex 24.5 -53 17
    endloop
  endfacet
  facet normal 0 1 -0
    outer loop
      vertex -12.5 -53 5
      vertex -24.5 -53 17
      vertex -12.5 -53 17
    endloop
  endfacet
  facet normal 0 1 0
    outer loop
      vertex -12.5 -53 5
      vertex -24.5 -53 0
      vertex -24.5 -53 17
    endloop
  endfacet
  facet normal 0 1 0
    outer loop
      vertex 12.5 -53 5
      vertex 24.5 -53 -3
      vertex -12.5 -53 5
    endloop
  endfacet
  facet normal 0 1 0
    outer loop
      vertex -24.5 -53 -3
      vertex -12.5 -53 5
      vertex 24.5 -53 -3
    endloop
  endfacet
  facet normal 0 1 0
    outer loop
      vertex -12.5 -53 5
      vertex -24.5 -53 -3
      vertex -24.5 -53 0
    endloop
  endfacet
  facet normal -0 0 1
    outer loop
      vertex -49.0365 -49.5734 17
      vertex -44.5 -53 17
      vertex -44.5 -16 17
    endloop
  endfacet
  facet normal 0 0 1
    outer loop
      vertex -44.5 -53 17
      vertex -49.0365 -49.5734 17
      vertex -48 -51 17
    endloop
  endfacet
  facet normal -0 0 1
    outer loop
      vertex -50.5 -16 17
      vertex -49.0365 -49.5734 17
      vertex -44.5 -16 17
    endloop
  endfacet
  facet normal 0 0 1
    outer loop
      vertex -49.0365 -49.5734 17
      vertex -50.5 -16 17
      vertex -50.7135 -50.1183 17
    endloop
  endfacet
  facet normal 0 0 1
    outer loop
      vertex 29.9635 46.0734 17
      vertex 34.5 48 17
      vertex 34.4719 48 17
    endloop
  endfacet
  facet normal -0 0 1
    outer loop
      vertex -24.5 -53 17
      vertex -12.5 -56 17
      vertex -12.5 -53 17
    endloop
  endfacet
  facet normal 0 0 1
    outer loop
      vertex -54.5 -56 17
      vertex -24.5 -53 17
      vertex -44.5 -53 17
    endloop
  endfacet
  facet normal -0 0 1
    outer loop
      vertex -49.0365 -52.4266 17
      vertex -44.5 -53 17
      vertex -48 -51 17
    endloop
  endfacet
  facet normal 0 0 1
    outer loop
      vertex -24.5 -53 17
      vertex -54.5 -56 17
      vertex -12.5 -56 17
    endloop
  endfacet
  facet normal 0 0 1
    outer loop
      vertex -49.0365 -52.4266 17
      vertex -54.5 -56 17
      vertex -44.5 -53 17
    endloop
  endfacet
  facet normal 0 0 1
    outer loop
      vertex -50.7135 -51.8817 17
      vertex -54.5 -56 17
      vertex -49.0365 -52.4266 17
    endloop
  endfacet
  facet normal 0 0 1
    outer loop
      vertex -50.7135 -50.1183 17
      vertex -54.5 -56 17
      vertex -50.7135 -51.8817 17
    endloop
  endfacet
  facet normal 0 0 1
    outer loop
      vertex -34.5 -2 17
      vertex -29.0365 1.57341 17
      vertex -30.7135 2.11832 17
    endloop
  endfacet
  facet normal -0 0 1
    outer loop
      vertex -34.5 48 17
      vertex -30.7135 46.6183 17
      vertex -34.4719 48 17
    endloop
  endfacet
  facet normal 0 0 1
    outer loop
      vertex -34.4719 48 17
      vertex -31.373 52.1359 17
      vertex -31.6919 51.994 17
    endloop
  endfacet
  facet normal 0 0 1
    outer loop
      vertex -34.4719 48 17
      vertex -31.6919 51.994 17
      vertex -32 51.8301 17
    endloop
  endfacet
  facet normal 0 0 1
    outer loop
      vertex -34.4719 48 17
      vertex -32 51.8301 17
      vertex -32.296 51.6452 17
    endloop
  endfacet
  facet normal 0 0 1
    outer loop
      vertex -34.4719 48 17
      vertex -32.296 51.6452 17
      vertex -32.5783 51.4401 17
    endloop
  endfacet
  facet normal 0 0 1
    outer loop
      vertex -34.4719 48 17
      vertex -32.5783 51.4401 17
      vertex -32.8457 51.2157 17
    endloop
  endfacet
  facet normal 0 0 1
    outer loop
      vertex -34.4719 48 17
      vertex -32.8457 51.2157 17
      vertex -33.0967 50.9733 17
    endloop
  endfacet
  facet normal 0 0 1
    outer loop
      vertex -34.4719 48 17
      vertex -33.0967 50.9733 17
      vertex -33.3302 50.7139 17
    endloop
  endfacet
  facet normal 0 0 1
    outer loop
      vertex -34.4719 48 17
      vertex -33.3302 50.7139 17
      vertex -33.5451 50.4389 17
    endloop
  endfacet
  facet normal 0 0 1
    outer loop
      vertex -34.4719 48 17
      vertex -33.5451 50.4389 17
      vertex -33.7402 50.1496 17
    endloop
  endfacet
  facet normal 0 0 1
    outer loop
      vertex -34.4719 48 17
      vertex -33.7402 50.1496 17
      vertex -33.9147 49.8474 17
    endloop
  endfacet
  facet normal 0 0 1
    outer loop
      vertex -34.4719 48 17
      vertex -33.9147 49.8474 17
      vertex -34.0677 49.5337 17
    endloop
  endfacet
  facet normal 0 0 1
    outer loop
      vertex -34.4719 48 17
      vertex -34.0677 49.5337 17
      vertex -34.1985 49.2101 17
    endloop
  endfacet
  facet normal 0 0 1
    outer loop
      vertex -34.4719 48 17
      vertex -34.1985 49.2101 17
      vertex -34.3063 48.8782 17
    endloop
  endfacet
  facet normal 0 0 1
    outer loop
      vertex -34.4719 48 17
      vertex -34.3063 48.8782 17
      vertex -34.3907 48.5396 17
    endloop
  endfacet
  facet normal 0 0 1
    outer loop
      vertex -34.4719 48 17
      vertex -34.3907 48.5396 17
      vertex -34.4513 48.1959 17
    endloop
  endfacet
  facet normal 0 0 1
    outer loop
      vertex -30.7135 46.6183 17
      vertex -34.5 48 17
      vertex -30.7135 3.88168 17
    endloop
  endfacet
  facet normal 0 0 1
    outer loop
      vertex -34.5 -2 17
      vertex -30.7135 3.88168 17
      vertex -34.5 48 17
    endloop
  endfacet
  facet normal 0 0 1
    outer loop
      vertex -30.7135 3.88168 17
      vertex -34.5 -2 17
      vertex -30.7135 2.11832 17
    endloop
  endfacet
  facet normal 0 0 1
    outer loop
      vertex -29.0365 1.57341 17
      vertex -34.5 -2 17
      vertex -29.5 -5 17
    endloop
  endfacet
  facet normal 0 0 1
    outer loop
      vertex -34.5 -2 17
      vertex -50.5 -5 17
      vertex -29.5 -5 17
    endloop
  endfacet
  facet normal 0 0 1
    outer loop
      vertex -54.5 -2 17
      vertex -50.5 -16 17
      vertex -50.5 -5 17
    endloop
  endfacet
  facet normal 0 0 1
    outer loop
      vertex -50.5 -16 17
      vertex -54.5 -56 17
      vertex -50.7135 -50.1183 17
    endloop
  endfacet
  facet normal 0 0 1
    outer loop
      vertex -54.5 -56 17
      vertex -50.5 -16 17
      vertex -54.5 -2 17
    endloop
  endfacet
  facet normal -0 0 1
    outer loop
      vertex -54.5 -2 17
      vertex -50.5 -5 17
      vertex -34.5 -2 17
    endloop
  endfacet
  facet normal 0 0 1
    outer loop
      vertex -29.0365 4.42658 17
      vertex -24.5 48 17
      vertex -29.0365 46.0734 17
    endloop
  endfacet
  facet normal 0 0 1
    outer loop
      vertex -24.5 48 17
      vertex -29.0365 4.42658 17
      vertex -28 3 17
    endloop
  endfacet
  facet normal 0 0 1
    outer loop
      vertex -30.7135 46.6183 17
      vertex -29.0365 4.42658 17
      vertex -29.0365 46.0734 17
    endloop
  endfacet
  facet normal 0 0 1
    outer loop
      vertex -29.0365 4.42658 17
      vertex -30.7135 46.6183 17
      vertex -30.7135 3.88168 17
    endloop
  endfacet
  facet normal 0 0 1
    outer loop
      vertex 24.5 48 17
      vertex 29.5 52.497 17
      vertex 29.5 52.5 17
    endloop
  endfacet
  facet normal -0 0 1
    outer loop
      vertex 24.5 48 17
      vertex 28.2865 46.6183 17
      vertex 28.2865 48.3817 17
    endloop
  endfacet
  facet normal 0 0 1
    outer loop
      vertex 28.2865 46.6183 17
      vertex 24.5 48 17
      vertex 28.2865 3.88168 17
    endloop
  endfacet
  facet normal 0 0 1
    outer loop
      vertex 24.5 -18 17
      vertex 28.2865 3.88168 17
      vertex 24.5 48 17
    endloop
  endfacet
  facet normal 0 0 1
    outer loop
      vertex 29.5 52.497 17
      vertex 24.5 48 17
      vertex 28.2865 48.3817 17
    endloop
  endfacet
  facet normal 0 0 1
    outer loop
      vertex 29.5 52.5 17
      vertex -24.5 48 17
      vertex 24.5 48 17
    endloop
  endfacet
  facet normal 0 0 1
    outer loop
      vertex -29.0365 46.0734 17
      vertex -24.5 48 17
      vertex -28 47.5 17
    endloop
  endfacet
  facet normal 0 0 1
    outer loop
      vertex -24.5 48 17
      vertex -29.0365 48.9266 17
      vertex -28 47.5 17
    endloop
  endfacet
  facet normal -0 0 1
    outer loop
      vertex -29.5 52.5 17
      vertex -24.5 48 17
      vertex 29.5 52.5 17
    endloop
  endfacet
  facet normal -0 0 1
    outer loop
      vertex -29.5 52.497 17
      vertex -24.5 48 17
      vertex -29.5 52.5 17
    endloop
  endfacet
  facet normal 0 0 1
    outer loop
      vertex -24.5 48 17
      vertex -29.5 52.497 17
      vertex -29.0365 48.9266 17
    endloop
  endfacet
  facet normal -0 0 1
    outer loop
      vertex -29.6745 52.497 17
      vertex -29.0365 48.9266 17
      vertex -29.5 52.497 17
    endloop
  endfacet
  facet normal -0 0 1
    outer loop
      vertex -30.0226 52.4726 17
      vertex -29.0365 48.9266 17
      vertex -29.6745 52.497 17
    endloop
  endfacet
  facet normal -0 0 1
    outer loop
      vertex -30.3682 52.424 17
      vertex -29.0365 48.9266 17
      vertex -30.0226 52.4726 17
    endloop
  endfacet
  facet normal -0 0 1
    outer loop
      vertex -30.7096 52.3515 17
      vertex -29.0365 48.9266 17
      vertex -30.3682 52.424 17
    endloop
  endfacet
  facet normal -0 0 1
    outer loop
      vertex -31.0451 52.2553 17
      vertex -29.0365 48.9266 17
      vertex -30.7096 52.3515 17
    endloop
  endfacet
  facet normal -0 0 1
    outer loop
      vertex -31.373 52.1359 17
      vertex -30.7135 48.3817 17
      vertex -31.0451 52.2553 17
    endloop
  endfacet
  facet normal 0 0 1
    outer loop
      vertex -34.4719 48 17
      vertex -30.7135 48.3817 17
      vertex -31.373 52.1359 17
    endloop
  endfacet
  facet normal 0 0 1
    outer loop
      vertex -30.7135 48.3817 17
      vertex -34.4719 48 17
      vertex -30.7135 46.6183 17
    endloop
  endfacet
  facet normal 0 0 1
    outer loop
      vertex -29.0365 48.9266 17
      vertex -31.0451 52.2553 17
      vertex -30.7135 48.3817 17
    endloop
  endfacet
  facet normal 0 0 1
    outer loop
      vertex 34.5 48 17
      vertex 29.9635 46.0734 17
      vertex 29.9635 4.42658 17
    endloop
  endfacet
  facet normal 0 0 1
    outer loop
      vertex 34.5 48 17
      vertex 29.9635 4.42658 17
      vertex 31 3 17
    endloop
  endfacet
  facet normal 0 0 1
    outer loop
      vertex 28.2865 46.6183 17
      vertex 29.9635 4.42658 17
      vertex 29.9635 46.0734 17
    endloop
  endfacet
  facet normal 0 0 1
    outer loop
      vertex 29.9635 4.42658 17
      vertex 28.2865 46.6183 17
      vertex 28.2865 3.88168 17
    endloop
  endfacet
  facet normal 0 0 1
    outer loop
      vertex 29.9635 48.9266 17
      vertex 31.0451 52.2553 17
      vertex 30.7096 52.3515 17
    endloop
  endfacet
  facet normal 0 0 1
    outer loop
      vertex 29.9635 48.9266 17
      vertex 30.7096 52.3515 17
      vertex 30.3682 52.424 17
    endloop
  endfacet
  facet normal 0 0 1
    outer loop
      vertex 29.9635 48.9266 17
      vertex 30.3682 52.424 17
      vertex 30.0226 52.4726 17
    endloop
  endfacet
  facet normal 0 0 1
    outer loop
      vertex 31.0451 52.2553 17
      vertex 29.9635 48.9266 17
      vertex 31 47.5 17
    endloop
  endfacet
  facet normal 0 0 1
    outer loop
      vertex 29.6745 52.497 17
      vertex 29.9635 48.9266 17
      vertex 30.0226 52.4726 17
    endloop
  endfacet
  facet normal -0 0 1
    outer loop
      vertex 29.5 52.497 17
      vertex 29.9635 48.9266 17
      vertex 29.6745 52.497 17
    endloop
  endfacet
  facet normal 0 0 1
    outer loop
      vertex 29.9635 48.9266 17
      vertex 29.5 52.497 17
      vertex 28.2865 48.3817 17
    endloop
  endfacet
  facet normal 0 0 1
    outer loop
      vertex -24.5 48 17
      vertex -28 3 17
      vertex -24.5 -18 17
    endloop
  endfacet
  facet normal 0 0 1
    outer loop
      vertex -29.5 -5 17
      vertex -28 3 17
      vertex -29.0365 1.57341 17
    endloop
  endfacet
  facet normal 0 0 1
    outer loop
      vertex -28 3 17
      vertex -29.5 -5 17
      vertex -24.5 -18 17
    endloop
  endfacet
  facet normal 0 0 1
    outer loop
      vertex -24.5 -18 17
      vertex -29.5 -5 17
      vertex -29.5 -18 17
    endloop
  endfacet
  facet normal -0 0 1
    outer loop
      vertex 50.5 -16 17
      vertex 54.5 -56 17
      vertex 54.5 -2 17
    endloop
  endfacet
  facet normal 0 0 1
    outer loop
      vertex 50.5 -16 17
      vertex 54.5 -2 17
      vertex 50.5 -5 17
    endloop
  endfacet
  facet normal -0 0 1
    outer loop
      vertex 34.5 -2 17
      vertex 50.5 -5 17
      vertex 54.5 -2 17
    endloop
  endfacet
  facet normal 0 0 1
    outer loop
      vertex 31 47.5 17
      vertex 34.4719 48 17
      vertex 34.4513 48.1959 17
    endloop
  endfacet
  facet normal 0 0 1
    outer loop
      vertex 31 47.5 17
      vertex 34.4513 48.1959 17
      vertex 34.3907 48.5396 17
    endloop
  endfacet
  facet normal 0 0 1
    outer loop
      vertex 31 47.5 17
      vertex 34.3907 48.5396 17
      vertex 34.3063 48.8782 17
    endloop
  endfacet
  facet normal 0 0 1
    outer loop
      vertex 31 47.5 17
      vertex 34.3063 48.8782 17
      vertex 34.1985 49.2101 17
    endloop
  endfacet
  facet normal 0 0 1
    outer loop
      vertex 31 47.5 17
      vertex 34.1985 49.2101 17
      vertex 34.0677 49.5337 17
    endloop
  endfacet
  facet normal 0 0 1
    outer loop
      vertex 31 47.5 17
      vertex 34.0677 49.5337 17
      vertex 33.9147 49.8474 17
    endloop
  endfacet
  facet normal 0 0 1
    outer loop
      vertex 31 47.5 17
      vertex 33.9147 49.8474 17
      vertex 33.7402 50.1496 17
    endloop
  endfacet
  facet normal 0 0 1
    outer loop
      vertex 31 47.5 17
      vertex 33.7402 50.1496 17
      vertex 33.5451 50.4389 17
    endloop
  endfacet
  facet normal 0 0 1
    outer loop
      vertex 31 47.5 17
      vertex 33.5451 50.4389 17
      vertex 33.3302 50.7139 17
    endloop
  endfacet
  facet normal 0 0 1
    outer loop
      vertex 31 47.5 17
      vertex 33.3302 50.7139 17
      vertex 33.0967 50.9733 17
    endloop
  endfacet
  facet normal 0 0 1
    outer loop
      vertex 31 47.5 17
      vertex 33.0967 50.9733 17
      vertex 32.8457 51.2157 17
    endloop
  endfacet
  facet normal 0 0 1
    outer loop
      vertex 31 47.5 17
      vertex 32.8457 51.2157 17
      vertex 32.5783 51.4401 17
    endloop
  endfacet
  facet normal 0 0 1
    outer loop
      vertex 31 47.5 17
      vertex 32.5783 51.4401 17
      vertex 32.296 51.6452 17
    endloop
  endfacet
  facet normal 0 0 1
    outer loop
      vertex 31 47.5 17
      vertex 32.296 51.6452 17
      vertex 32 51.8301 17
    endloop
  endfacet
  facet normal 0 0 1
    outer loop
      vertex 31 47.5 17
      vertex 32 51.8301 17
      vertex 31.6919 51.994 17
    endloop
  endfacet
  facet normal 0 0 1
    outer loop
      vertex 31 47.5 17
      vertex 31.6919 51.994 17
      vertex 31.373 52.1359 17
    endloop
  endfacet
  facet normal 0 0 1
    outer loop
      vertex 31 47.5 17
      vertex 31.373 52.1359 17
      vertex 31.0451 52.2553 17
    endloop
  endfacet
  facet normal 0 0 1
    outer loop
      vertex 29.9635 46.0734 17
      vertex 34.4719 48 17
      vertex 31 47.5 17
    endloop
  endfacet
  facet normal 0 0 1
    outer loop
      vertex 34.5 48 17
      vertex 31 3 17
      vertex 34.5 -2 17
    endloop
  endfacet
  facet normal -0 0 1
    outer loop
      vertex 29.9635 1.57341 17
      vertex 34.5 -2 17
      vertex 31 3 17
    endloop
  endfacet
  facet normal 0 0 1
    outer loop
      vertex 34.5 -2 17
      vertex 29.5 -5 17
      vertex 50.5 -5 17
    endloop
  endfacet
  facet normal 0 0 1
    outer loop
      vertex 29.9635 1.57341 17
      vertex 29.5 -5 17
      vertex 34.5 -2 17
    endloop
  endfacet
  facet normal 0 0 1
    outer loop
      vertex 28.2865 2.11832 17
      vertex 29.5 -5 17
      vertex 29.9635 1.57341 17
    endloop
  endfacet
  facet normal 0 0 1
    outer loop
      vertex 24.5 -18 17
      vertex 29.5 -5 17
      vertex 28.2865 2.11832 17
    endloop
  endfacet
  facet normal 0 0 1
    outer loop
      vertex 28.2865 3.88168 17
      vertex 24.5 -18 17
      vertex 28.2865 2.11832 17
    endloop
  endfacet
  facet normal 0 0 1
    outer loop
      vertex 29.5 -5 17
      vertex 24.5 -18 17
      vertex 29.5 -18 17
    endloop
  endfacet
  facet normal -0 0 1
    outer loop
      vertex 49.9635 -52.4266 17
      vertex 54.5 -56 17
      vertex 51 -51 17
    endloop
  endfacet
  facet normal 0 0 1
    outer loop
      vertex 44.5 -53 17
      vertex 49.9635 -52.4266 17
      vertex 48.2865 -51.8817 17
    endloop
  endfacet
  facet normal 0 0 1
    outer loop
      vertex 48.2865 -50.1183 17
      vertex 44.5 -53 17
      vertex 48.2865 -51.8817 17
    endloop
  endfacet
  facet normal 0 0 1
    outer loop
      vertex 49.9635 -52.4266 17
      vertex 44.5 -53 17
      vertex 54.5 -56 17
    endloop
  endfacet
  facet normal -0 0 1
    outer loop
      vertex 24.5 -53 17
      vertex 54.5 -56 17
      vertex 44.5 -53 17
    endloop
  endfacet
  facet normal 0 0 1
    outer loop
      vertex 12.5 -56 17
      vertex 24.5 -53 17
      vertex 12.5 -53 17
    endloop
  endfacet
  facet normal 0 0 1
    outer loop
      vertex 24.5 -53 17
      vertex 12.5 -56 17
      vertex 54.5 -56 17
    endloop
  endfacet
  facet normal 0 0 1
    outer loop
      vertex 54.5 -56 17
      vertex 50.5 -16 17
      vertex 51 -51 17
    endloop
  endfacet
  facet normal 0 0 1
    outer loop
      vertex 50.5 -16 17
      vertex 49.9635 -49.5734 17
      vertex 51 -51 17
    endloop
  endfacet
  facet normal -0 0 1
    outer loop
      vertex 44.5 -16 17
      vertex 49.9635 -49.5734 17
      vertex 50.5 -16 17
    endloop
  endfacet
  facet normal 0 0 1
    outer loop
      vertex 44.5 -53 17
      vertex 48.2865 -50.1183 17
      vertex 44.5 -16 17
    endloop
  endfacet
  facet normal 0 0 1
    outer loop
      vertex 49.9635 -49.5734 17
      vertex 44.5 -16 17
      vertex 48.2865 -50.1183 17
    endloop
  endfacet
  facet normal 0 -1 0
    outer loop
      vertex -29.5 -18 0
      vertex -24.5 -18 17
      vertex -29.5 -18 17
    endloop
  endfacet
  facet normal 0 -1 -0
    outer loop
      vertex -24.5 -18 17
      vertex -29.5 -18 0
      vertex -24.5 -18 0
    endloop
  endfacet
  facet normal 1 -0 0
    outer loop
      vertex -50.5 -16 17
      vertex -50.5 -5 0
      vertex -50.5 -5 17
    endloop
  endfacet
  facet normal 1 0 0
    outer loop
      vertex -50.5 -5 0
      vertex -50.5 -16 17
      vertex -50.5 -16 0
    endloop
  endfacet
  facet normal -1 0 0
    outer loop
      vertex -29.5 -18 0
      vertex -29.5 -5 17
      vertex -29.5 -5 0
    endloop
  endfacet
  facet normal -1 -0 0
    outer loop
      vertex -29.5 -5 17
      vertex -29.5 -18 0
      vertex -29.5 -18 17
    endloop
  endfacet
  facet normal 0 -1 0
    outer loop
      vertex -50.5 -5 0
      vertex -29.5 -5 17
      vertex -50.5 -5 17
    endloop
  endfacet
  facet normal 0 -1 -0
    outer loop
      vertex -29.5 -5 17
      vertex -50.5 -5 0
      vertex -29.5 -5 0
    endloop
  endfacet
  facet normal 0 -1 0
    outer loop
      vertex 24.5 -18 0
      vertex 29.5 -18 17
      vertex 24.5 -18 17
    endloop
  endfacet
  facet normal 0 -1 -0
    outer loop
      vertex 29.5 -18 17
      vertex 24.5 -18 0
      vertex 29.5 -18 0
    endloop
  endfacet
  facet normal 1 -0 0
    outer loop
      vertex 29.5 -18 17
      vertex 29.5 -5 0
      vertex 29.5 -5 17
    endloop
  endfacet
  facet normal 1 0 0
    outer loop
      vertex 29.5 -5 0
      vertex 29.5 -18 17
      vertex 29.5 -18 0
    endloop
  endfacet
  facet normal -1 0 0
    outer loop
      vertex 50.5 -16 0
      vertex 50.5 -5 17
      vertex 50.5 -5 0
    endloop
  endfacet
  facet normal -1 -0 0
    outer loop
      vertex 50.5 -5 17
      vertex 50.5 -16 0
      vertex 50.5 -16 17
    endloop
  endfacet
  facet normal 0 -1 0
    outer loop
      vertex 29.5 -5 0
      vertex 50.5 -5 17
      vertex 29.5 -5 17
    endloop
  endfacet
  facet normal 0 -1 -0
    outer loop
      vertex 50.5 -5 17
      vertex 29.5 -5 0
      vertex 50.5 -5 0
    endloop
  endfacet
  facet normal -1 0 0
    outer loop
      vertex -29.5 52.497 -3
      vertex -29.5 52.5 17
      vertex -29.5 52.5 -3
    endloop
  endfacet
  facet normal -1 -0 0
    outer loop
      vertex -29.5 52.5 17
      vertex -29.5 52.497 -3
      vertex -29.5 52.497 17
    endloop
  endfacet
  facet normal 1 -0 0
    outer loop
      vertex 29.5 52.497 17
      vertex 29.5 52.5 -3
      vertex 29.5 52.5 17
    endloop
  endfacet
  facet normal 1 0 0
    outer loop
      vertex 29.5 52.5 -3
      vertex 29.5 52.497 17
      vertex 29.5 52.497 -3
    endloop
  endfacet
  facet normal 0 1 -0
    outer loop
      vertex 29.5 52.5 -3
      vertex -29.5 52.5 17
      vertex 29.5 52.5 17
    endloop
  endfacet
  facet normal 0 1 0
    outer loop
      vertex -29.5 52.5 17
      vertex 29.5 52.5 -3
      vertex -29.5 52.5 -3
    endloop
  endfacet
  facet normal 0 -1 0
    outer loop
      vertex -54.5 -56 17
      vertex -12.5 -56 5
      vertex -12.5 -56 17
    endloop
  endfacet
  facet normal 0 -1 -0
    outer loop
      vertex -12.5 -56 5
      vertex -54.5 -56 -3
      vertex 12.5 -56 5
    endloop
  endfacet
  facet normal 0 -1 0
    outer loop
      vertex -54.5 -56 -3
      vertex -12.5 -56 5
      vertex -54.5 -56 17
    endloop
  endfacet
  facet normal 0 -1 0
    outer loop
      vertex 12.5 -56 5
      vertex 54.5 -56 17
      vertex 12.5 -56 17
    endloop
  endfacet
  facet normal 0 -1 0
    outer loop
      vertex 12.5 -56 5
      vertex 54.5 -56 -3
      vertex 54.5 -56 17
    endloop
  endfacet
  facet normal 0 -1 0
    outer loop
      vertex 54.5 -56 -3
      vertex 12.5 -56 5
      vertex -54.5 -56 -3
    endloop
  endfacet
  facet normal 0.970295 0.241926 0
    outer loop
      vertex 34.3907 48.5396 17
      vertex 34.3063 48.8782 -3
      vertex 34.3063 48.8782 17
    endloop
  endfacet
  facet normal 0.970295 0.241926 0
    outer loop
      vertex 34.3063 48.8782 -3
      vertex 34.3907 48.5396 17
      vertex 34.3907 48.5396 -3
    endloop
  endfacet
  facet normal 0 1 -0
    outer loop
      vertex 29.6745 52.497 -3
      vertex 29.5 52.497 17
      vertex 29.6745 52.497 17
    endloop
  endfacet
  facet normal 0 1 0
    outer loop
      vertex 29.5 52.497 17
      vertex 29.6745 52.497 -3
      vertex 29.5 52.497 -3
    endloop
  endfacet
  facet normal 0.694664 0.719334 -0
    outer loop
      vertex 33.0967 50.9733 -3
      vertex 32.8457 51.2157 17
      vertex 33.0967 50.9733 17
    endloop
  endfacet
  facet normal 0.694664 0.719334 0
    outer loop
      vertex 32.8457 51.2157 17
      vertex 33.0967 50.9733 -3
      vertex 32.8457 51.2157 -3
    endloop
  endfacet
  facet normal 0.951056 0.309018 0
    outer loop
      vertex 34.3063 48.8782 17
      vertex 34.1985 49.2101 -3
      vertex 34.1985 49.2101 17
    endloop
  endfacet
  facet normal 0.951056 0.309018 0
    outer loop
      vertex 34.1985 49.2101 -3
      vertex 34.3063 48.8782 17
      vertex 34.3063 48.8782 -3
    endloop
  endfacet
  facet normal 0.898795 0.438369 0
    outer loop
      vertex 34.0677 49.5337 17
      vertex 33.9147 49.8474 -3
      vertex 33.9147 49.8474 17
    endloop
  endfacet
  facet normal 0.898795 0.438369 0
    outer loop
      vertex 33.9147 49.8474 -3
      vertex 34.0677 49.5337 17
      vertex 34.0677 49.5337 -3
    endloop
  endfacet
  facet normal 0.829036 0.559195 0
    outer loop
      vertex 33.7402 50.1496 17
      vertex 33.5451 50.4389 -3
      vertex 33.5451 50.4389 17
    endloop
  endfacet
  facet normal 0.829036 0.559195 0
    outer loop
      vertex 33.5451 50.4389 -3
      vertex 33.7402 50.1496 17
      vertex 33.7402 50.1496 -3
    endloop
  endfacet
  facet normal 0.743143 0.669133 0
    outer loop
      vertex 33.3302 50.7139 17
      vertex 33.0967 50.9733 -3
      vertex 33.0967 50.9733 17
    endloop
  endfacet
  facet normal 0.743143 0.669133 0
    outer loop
      vertex 33.0967 50.9733 -3
      vertex 33.3302 50.7139 17
      vertex 33.3302 50.7139 -3
    endloop
  endfacet
  facet normal 0.788008 0.615665 0
    outer loop
      vertex 33.5451 50.4389 17
      vertex 33.3302 50.7139 -3
      vertex 33.3302 50.7139 17
    endloop
  endfacet
  facet normal 0.788008 0.615665 0
    outer loop
      vertex 33.3302 50.7139 -3
      vertex 33.5451 50.4389 17
      vertex 33.5451 50.4389 -3
    endloop
  endfacet
  facet normal 0.207909 0.978148 -0
    outer loop
      vertex 30.7096 52.3515 -3
      vertex 30.3682 52.424 17
      vertex 30.7096 52.3515 17
    endloop
  endfacet
  facet normal 0.207909 0.978148 0
    outer loop
      vertex 30.3682 52.424 17
      vertex 30.7096 52.3515 -3
      vertex 30.3682 52.424 -3
    endloop
  endfacet
  facet normal 0.0697583 0.997564 -0
    outer loop
      vertex 30.0226 52.4726 -3
      vertex 29.6745 52.497 17
      vertex 30.0226 52.4726 17
    endloop
  endfacet
  facet normal 0.0697583 0.997564 0
    outer loop
      vertex 29.6745 52.497 17
      vertex 30.0226 52.4726 -3
      vertex 29.6745 52.497 -3
    endloop
  endfacet
  facet normal 0.587785 0.809017 -0
    outer loop
      vertex 32.5783 51.4401 -3
      vertex 32.296 51.6452 17
      vertex 32.5783 51.4401 17
    endloop
  endfacet
  facet normal 0.587785 0.809017 0
    outer loop
      vertex 32.296 51.6452 17
      vertex 32.5783 51.4401 -3
      vertex 32.296 51.6452 -3
    endloop
  endfacet
  facet normal 0.529923 0.848046 -0
    outer loop
      vertex 32.296 51.6452 -3
      vertex 32 51.8301 17
      vertex 32.296 51.6452 17
    endloop
  endfacet
  facet normal 0.529923 0.848046 0
    outer loop
      vertex 32 51.8301 17
      vertex 32.296 51.6452 -3
      vertex 32 51.8301 -3
    endloop
  endfacet
  facet normal 0.984809 0.173643 0
    outer loop
      vertex 34.4513 48.1959 17
      vertex 34.3907 48.5396 -3
      vertex 34.3907 48.5396 17
    endloop
  endfacet
  facet normal 0.984809 0.173643 0
    outer loop
      vertex 34.3907 48.5396 -3
      vertex 34.4513 48.1959 17
      vertex 34.4513 48.1959 -3
    endloop
  endfacet
  facet normal 0.927184 0.374607 0
    outer loop
      vertex 34.1985 49.2101 17
      vertex 34.0677 49.5337 -3
      vertex 34.0677 49.5337 17
    endloop
  endfacet
  facet normal 0.927184 0.374607 0
    outer loop
      vertex 34.0677 49.5337 -3
      vertex 34.1985 49.2101 17
      vertex 34.1985 49.2101 -3
    endloop
  endfacet
  facet normal 0.866028 0.499996 0
    outer loop
      vertex 33.9147 49.8474 17
      vertex 33.7402 50.1496 -3
      vertex 33.7402 50.1496 17
    endloop
  endfacet
  facet normal 0.866028 0.499996 0
    outer loop
      vertex 33.7402 50.1496 -3
      vertex 33.9147 49.8474 17
      vertex 33.9147 49.8474 -3
    endloop
  endfacet
  facet normal 0.275635 0.961262 -0
    outer loop
      vertex 31.0451 52.2553 -3
      vertex 30.7096 52.3515 17
      vertex 31.0451 52.2553 17
    endloop
  endfacet
  facet normal 0.275635 0.961262 0
    outer loop
      vertex 30.7096 52.3515 17
      vertex 31.0451 52.2553 -3
      vertex 30.7096 52.3515 -3
    endloop
  endfacet
  facet normal 0.139178 0.990267 -0
    outer loop
      vertex 30.3682 52.424 -3
      vertex 30.0226 52.4726 17
      vertex 30.3682 52.424 17
    endloop
  endfacet
  facet normal 0.139178 0.990267 0
    outer loop
      vertex 30.0226 52.4726 17
      vertex 30.3682 52.424 -3
      vertex 30.0226 52.4726 -3
    endloop
  endfacet
  facet normal 0.342028 0.93969 -0
    outer loop
      vertex 31.373 52.1359 -3
      vertex 31.0451 52.2553 17
      vertex 31.373 52.1359 17
    endloop
  endfacet
  facet normal 0.342028 0.93969 0
    outer loop
      vertex 31.0451 52.2553 17
      vertex 31.373 52.1359 -3
      vertex 31.0451 52.2553 -3
    endloop
  endfacet
  facet normal 0.469468 0.88295 -0
    outer loop
      vertex 32 51.8301 -3
      vertex 31.6919 51.994 17
      vertex 32 51.8301 17
    endloop
  endfacet
  facet normal 0.469468 0.88295 0
    outer loop
      vertex 31.6919 51.994 17
      vertex 32 51.8301 -3
      vertex 31.6919 51.994 -3
    endloop
  endfacet
  facet normal 0.642784 0.766048 -0
    outer loop
      vertex 32.8457 51.2157 -3
      vertex 32.5783 51.4401 17
      vertex 32.8457 51.2157 17
    endloop
  endfacet
  facet normal 0.642784 0.766048 0
    outer loop
      vertex 32.5783 51.4401 17
      vertex 32.8457 51.2157 -3
      vertex 32.5783 51.4401 -3
    endloop
  endfacet
  facet normal 0.994521 0.104537 0
    outer loop
      vertex 34.4719 48 17
      vertex 34.4513 48.1959 -3
      vertex 34.4513 48.1959 17
    endloop
  endfacet
  facet normal 0.994521 0.104537 0
    outer loop
      vertex 34.4513 48.1959 -3
      vertex 34.4719 48 17
      vertex 34.4719 48 -3
    endloop
  endfacet
  facet normal 0.406734 0.913547 -0
    outer loop
      vertex 31.6919 51.994 -3
      vertex 31.373 52.1359 17
      vertex 31.6919 51.994 17
    endloop
  endfacet
  facet normal 0.406734 0.913547 0
    outer loop
      vertex 31.373 52.1359 17
      vertex 31.6919 51.994 -3
      vertex 31.373 52.1359 -3
    endloop
  endfacet
  facet normal -0.406734 0.913547 0
    outer loop
      vertex -31.373 52.1359 -3
      vertex -31.6919 51.994 17
      vertex -31.373 52.1359 17
    endloop
  endfacet
  facet normal -0.406734 0.913547 0
    outer loop
      vertex -31.6919 51.994 17
      vertex -31.373 52.1359 -3
      vertex -31.6919 51.994 -3
    endloop
  endfacet
  facet normal -0.898795 0.438369 0
    outer loop
      vertex -34.0677 49.5337 -3
      vertex -33.9147 49.8474 17
      vertex -33.9147 49.8474 -3
    endloop
  endfacet
  facet normal -0.898795 0.438369 0
    outer loop
      vertex -33.9147 49.8474 17
      vertex -34.0677 49.5337 -3
      vertex -34.0677 49.5337 17
    endloop
  endfacet
  facet normal -0.984809 0.173643 0
    outer loop
      vertex -34.4513 48.1959 -3
      vertex -34.3907 48.5396 17
      vertex -34.3907 48.5396 -3
    endloop
  endfacet
  facet normal -0.984809 0.173643 0
    outer loop
      vertex -34.3907 48.5396 17
      vertex -34.4513 48.1959 -3
      vertex -34.4513 48.1959 17
    endloop
  endfacet
  facet normal -0.743143 0.669133 0
    outer loop
      vertex -33.3302 50.7139 -3
      vertex -33.0967 50.9733 17
      vertex -33.0967 50.9733 -3
    endloop
  endfacet
  facet normal -0.743143 0.669133 0
    outer loop
      vertex -33.0967 50.9733 17
      vertex -33.3302 50.7139 -3
      vertex -33.3302 50.7139 17
    endloop
  endfacet
  facet normal -0.207909 0.978148 0
    outer loop
      vertex -30.3682 52.424 -3
      vertex -30.7096 52.3515 17
      vertex -30.3682 52.424 17
    endloop
  endfacet
  facet normal -0.207909 0.978148 0
    outer loop
      vertex -30.7096 52.3515 17
      vertex -30.3682 52.424 -3
      vertex -30.7096 52.3515 -3
    endloop
  endfacet
  facet normal 0 1 -0
    outer loop
      vertex -29.5 52.497 -3
      vertex -29.6745 52.497 17
      vertex -29.5 52.497 17
    endloop
  endfacet
  facet normal 0 1 0
    outer loop
      vertex -29.6745 52.497 17
      vertex -29.5 52.497 -3
      vertex -29.6745 52.497 -3
    endloop
  endfacet
  facet normal -0.927184 0.374607 0
    outer loop
      vertex -34.1985 49.2101 -3
      vertex -34.0677 49.5337 17
      vertex -34.0677 49.5337 -3
    endloop
  endfacet
  facet normal -0.927184 0.374607 0
    outer loop
      vertex -34.0677 49.5337 17
      vertex -34.1985 49.2101 -3
      vertex -34.1985 49.2101 17
    endloop
  endfacet
  facet normal -0.970295 0.241926 0
    outer loop
      vertex -34.3907 48.5396 -3
      vertex -34.3063 48.8782 17
      vertex -34.3063 48.8782 -3
    endloop
  endfacet
  facet normal -0.970295 0.241926 0
    outer loop
      vertex -34.3063 48.8782 17
      vertex -34.3907 48.5396 -3
      vertex -34.3907 48.5396 17
    endloop
  endfacet
  facet normal -0.788008 0.615665 0
    outer loop
      vertex -33.5451 50.4389 -3
      vertex -33.3302 50.7139 17
      vertex -33.3302 50.7139 -3
    endloop
  endfacet
  facet normal -0.788008 0.615665 0
    outer loop
      vertex -33.3302 50.7139 17
      vertex -33.5451 50.4389 -3
      vertex -33.5451 50.4389 17
    endloop
  endfacet
  facet normal -0.275635 0.961262 0
    outer loop
      vertex -30.7096 52.3515 -3
      vertex -31.0451 52.2553 17
      vertex -30.7096 52.3515 17
    endloop
  endfacet
  facet normal -0.275635 0.961262 0
    outer loop
      vertex -31.0451 52.2553 17
      vertex -30.7096 52.3515 -3
      vertex -31.0451 52.2553 -3
    endloop
  endfacet
  facet normal -0.0697583 0.997564 0
    outer loop
      vertex -29.6745 52.497 -3
      vertex -30.0226 52.4726 17
      vertex -29.6745 52.497 17
    endloop
  endfacet
  facet normal -0.0697583 0.997564 0
    outer loop
      vertex -30.0226 52.4726 17
      vertex -29.6745 52.497 -3
      vertex -30.0226 52.4726 -3
    endloop
  endfacet
  facet normal -0.529923 0.848046 0
    outer loop
      vertex -32 51.8301 -3
      vertex -32.296 51.6452 17
      vertex -32 51.8301 17
    endloop
  endfacet
  facet normal -0.529923 0.848046 0
    outer loop
      vertex -32.296 51.6452 17
      vertex -32 51.8301 -3
      vertex -32.296 51.6452 -3
    endloop
  endfacet
  facet normal -0.469468 0.88295 0
    outer loop
      vertex -31.6919 51.994 -3
      vertex -32 51.8301 17
      vertex -31.6919 51.994 17
    endloop
  endfacet
  facet normal -0.469468 0.88295 0
    outer loop
      vertex -32 51.8301 17
      vertex -31.6919 51.994 -3
      vertex -32 51.8301 -3
    endloop
  endfacet
  facet normal -0.694664 0.719334 0
    outer loop
      vertex -32.8457 51.2157 -3
      vertex -33.0967 50.9733 17
      vertex -32.8457 51.2157 17
    endloop
  endfacet
  facet normal -0.694664 0.719334 0
    outer loop
      vertex -33.0967 50.9733 17
      vertex -32.8457 51.2157 -3
      vertex -33.0967 50.9733 -3
    endloop
  endfacet
  facet normal -0.994521 0.104537 0
    outer loop
      vertex -34.4719 48 -3
      vertex -34.4513 48.1959 17
      vertex -34.4513 48.1959 -3
    endloop
  endfacet
  facet normal -0.994521 0.104537 0
    outer loop
      vertex -34.4513 48.1959 17
      vertex -34.4719 48 -3
      vertex -34.4719 48 17
    endloop
  endfacet
  facet normal -0.951056 0.309018 0
    outer loop
      vertex -34.3063 48.8782 -3
      vertex -34.1985 49.2101 17
      vertex -34.1985 49.2101 -3
    endloop
  endfacet
  facet normal -0.951056 0.309018 0
    outer loop
      vertex -34.1985 49.2101 17
      vertex -34.3063 48.8782 -3
      vertex -34.3063 48.8782 17
    endloop
  endfacet
  facet normal -0.829036 0.559195 0
    outer loop
      vertex -33.7402 50.1496 -3
      vertex -33.5451 50.4389 17
      vertex -33.5451 50.4389 -3
    endloop
  endfacet
  facet normal -0.829036 0.559195 0
    outer loop
      vertex -33.5451 50.4389 17
      vertex -33.7402 50.1496 -3
      vertex -33.7402 50.1496 17
    endloop
  endfacet
  facet normal -0.866028 0.499996 0
    outer loop
      vertex -33.9147 49.8474 -3
      vertex -33.7402 50.1496 17
      vertex -33.7402 50.1496 -3
    endloop
  endfacet
  facet normal -0.866028 0.499996 0
    outer loop
      vertex -33.7402 50.1496 17
      vertex -33.9147 49.8474 -3
      vertex -33.9147 49.8474 17
    endloop
  endfacet
  facet normal -0.342028 0.93969 0
    outer loop
      vertex -31.0451 52.2553 -3
      vertex -31.373 52.1359 17
      vertex -31.0451 52.2553 17
    endloop
  endfacet
  facet normal -0.342028 0.93969 0
    outer loop
      vertex -31.373 52.1359 17
      vertex -31.0451 52.2553 -3
      vertex -31.373 52.1359 -3
    endloop
  endfacet
  facet normal -0.587785 0.809017 0
    outer loop
      vertex -32.296 51.6452 -3
      vertex -32.5783 51.4401 17
      vertex -32.296 51.6452 17
    endloop
  endfacet
  facet normal -0.587785 0.809017 0
    outer loop
      vertex -32.5783 51.4401 17
      vertex -32.296 51.6452 -3
      vertex -32.5783 51.4401 -3
    endloop
  endfacet
  facet normal -0.642784 0.766048 0
    outer loop
      vertex -32.5783 51.4401 -3
      vertex -32.8457 51.2157 17
      vertex -32.5783 51.4401 17
    endloop
  endfacet
  facet normal -0.642784 0.766048 0
    outer loop
      vertex -32.8457 51.2157 17
      vertex -32.5783 51.4401 -3
      vertex -32.8457 51.2157 -3
    endloop
  endfacet
  facet normal -0.139178 0.990267 0
    outer loop
      vertex -30.0226 52.4726 -3
      vertex -30.3682 52.424 17
      vertex -30.0226 52.4726 17
    endloop
  endfacet
  facet normal -0.139178 0.990267 0
    outer loop
      vertex -30.3682 52.424 17
      vertex -30.0226 52.4726 -3
      vertex -30.3682 52.424 -3
    endloop
  endfacet
  facet normal 1 -0 0
    outer loop
      vertex 34.5 -2 17
      vertex 34.5 48 -3
      vertex 34.5 48 17
    endloop
  endfacet
  facet normal 1 0 0
    outer loop
      vertex 34.5 48 -3
      vertex 34.5 -2 17
      vertex 34.5 -2 -3
    endloop
  endfacet
  facet normal 0 1 -0
    outer loop
      vertex 34.5 48 -3
      vertex 34.4719 48 17
      vertex 34.5 48 17
    endloop
  endfacet
  facet normal 0 1 0
    outer loop
      vertex 34.4719 48 17
      vertex 34.5 48 -3
      vertex 34.4719 48 -3
    endloop
  endfacet
  facet normal -1 0 0
    outer loop
      vertex -34.5 -2 -3
      vertex -34.5 48 17
      vertex -34.5 48 -3
    endloop
  endfacet
  facet normal -1 -0 0
    outer loop
      vertex -34.5 48 17
      vertex -34.5 -2 -3
      vertex -34.5 -2 17
    endloop
  endfacet
  facet normal 0 1 -0
    outer loop
      vertex -34.4719 48 -3
      vertex -34.5 48 17
      vertex -34.4719 48 17
    endloop
  endfacet
  facet normal 0 1 0
    outer loop
      vertex -34.5 48 17
      vertex -34.4719 48 -3
      vertex -34.5 48 -3
    endloop
  endfacet
  facet normal 1 -0 0
    outer loop
      vertex -44.5 -53 17
      vertex -44.5 -16 0
      vertex -44.5 -16 17
    endloop
  endfacet
  facet normal 1 0 0
    outer loop
      vertex -44.5 -16 0
      vertex -44.5 -53 17
      vertex -44.5 -53 0
    endloop
  endfacet
  facet normal 0 1 -0
    outer loop
      vertex -44.5 -16 0
      vertex -50.5 -16 17
      vertex -44.5 -16 17
    endloop
  endfacet
  facet normal 0 1 0
    outer loop
      vertex -50.5 -16 17
      vertex -44.5 -16 0
      vertex -50.5 -16 0
    endloop
  endfacet
  facet normal -1 0 0
    outer loop
      vertex 44.5 -53 0
      vertex 44.5 -16 17
      vertex 44.5 -16 0
    endloop
  endfacet
  facet normal -1 -0 0
    outer loop
      vertex 44.5 -16 17
      vertex 44.5 -53 0
      vertex 44.5 -53 17
    endloop
  endfacet
  facet normal 0 1 -0
    outer loop
      vertex 50.5 -16 0
      vertex 44.5 -16 17
      vertex 50.5 -16 17
    endloop
  endfacet
  facet normal 0 1 0
    outer loop
      vertex 44.5 -16 17
      vertex 50.5 -16 0
      vertex 44.5 -16 0
    endloop
  endfacet
  facet normal -1 0 0
    outer loop
      vertex 30 -47 0
      vertex 30 -45 3
      vertex 30 -45 0
    endloop
  endfacet
  facet normal -1 -0 0
    outer loop
      vertex 30 -45 3
      vertex 30 -47 0
      vertex 30 -47 3
    endloop
  endfacet
  facet normal -0 0 1
    outer loop
      vertex 30 -45 3
      vertex 40 -47 3
      vertex 40 -45 3
    endloop
  endfacet
  facet normal 0 0 1
    outer loop
      vertex 40 -47 3
      vertex 30 -45 3
      vertex 30 -47 3
    endloop
  endfacet
  facet normal 1 -0 0
    outer loop
      vertex 40 -47 3
      vertex 40 -45 0
      vertex 40 -45 3
    endloop
  endfacet
  facet normal 1 0 0
    outer loop
      vertex 40 -45 0
      vertex 40 -47 3
      vertex 40 -47 0
    endloop
  endfacet
  facet normal 0 -1 0
    outer loop
      vertex 30 -47 0
      vertex 40 -47 3
      vertex 30 -47 3
    endloop
  endfacet
  facet normal 0 -1 0
    outer loop
      vertex 30 -47 0
      vertex 40 -47 0
      vertex 40 -47 3
    endloop
  endfacet
  facet normal 0 -1 0
    outer loop
      vertex 30 -47 -3
      vertex 40 -47 0
      vertex 30 -47 0
    endloop
  endfacet
  facet normal 0 -1 -0
    outer loop
      vertex 40 -47 0
      vertex 30 -47 -3
      vertex 40 -47 -3
    endloop
  endfacet
  facet normal 0 1 -0
    outer loop
      vertex 40 -45 0
      vertex 30 -45 3
      vertex 40 -45 3
    endloop
  endfacet
  facet normal 0 1 0
    outer loop
      vertex 30 -45 3
      vertex 40 -45 0
      vertex 30 -45 0
    endloop
  endfacet
  facet normal -0.809017 -0.587785 0
    outer loop
      vertex 51 -51 2
      vertex 49.9635 -49.5734 17
      vertex 49.9635 -49.5734 2
    endloop
  endfacet
  facet normal -0.809017 -0.587785 0
    outer loop
      vertex 49.9635 -49.5734 17
      vertex 51 -51 2
      vertex 51 -51 17
    endloop
  endfacet
  facet normal 1 -0 0
    outer loop
      vertex 48.2865 -51.8817 17
      vertex 48.2865 -50.1183 2
      vertex 48.2865 -50.1183 17
    endloop
  endfacet
  facet normal 1 0 0
    outer loop
      vertex 48.2865 -50.1183 2
      vertex 48.2865 -51.8817 17
      vertex 48.2865 -51.8817 2
    endloop
  endfacet
  facet normal 0.309017 -0.951056 0
    outer loop
      vertex 48.2865 -50.1183 2
      vertex 49.9635 -49.5734 17
      vertex 48.2865 -50.1183 17
    endloop
  endfacet
  facet normal 0.309017 -0.951056 0
    outer loop
      vertex 49.9635 -49.5734 17
      vertex 48.2865 -50.1183 2
      vertex 49.9635 -49.5734 2
    endloop
  endfacet
  facet normal 0.309017 0.951056 -0
    outer loop
      vertex 49.9635 -52.4266 2
      vertex 48.2865 -51.8817 17
      vertex 49.9635 -52.4266 17
    endloop
  endfacet
  facet normal 0.309017 0.951056 0
    outer loop
      vertex 48.2865 -51.8817 17
      vertex 49.9635 -52.4266 2
      vertex 48.2865 -51.8817 2
    endloop
  endfacet
  facet normal 0 0 1
    outer loop
      vertex 49.9635 -49.5734 2
      vertex 49.9635 -52.4266 2
      vertex 51 -51 2
    endloop
  endfacet
  facet normal -0 0 1
    outer loop
      vertex 48.2865 -50.1183 2
      vertex 49.9635 -52.4266 2
      vertex 49.9635 -49.5734 2
    endloop
  endfacet
  facet normal 0 0 1
    outer loop
      vertex 49.9635 -52.4266 2
      vertex 48.2865 -50.1183 2
      vertex 48.2865 -51.8817 2
    endloop
  endfacet
  facet normal -0.809016 0.587787 0
    outer loop
      vertex 49.9635 -52.4266 2
      vertex 51 -51 17
      vertex 51 -51 2
    endloop
  endfacet
  facet normal -0.809016 0.587787 0
    outer loop
      vertex 51 -51 17
      vertex 49.9635 -52.4266 2
      vertex 49.9635 -52.4266 17
    endloop
  endfacet
  facet normal -0.809017 -0.587785 0
    outer loop
      vertex -48 -51 2
      vertex -49.0365 -49.5734 17
      vertex -49.0365 -49.5734 2
    endloop
  endfacet
  facet normal -0.809017 -0.587785 0
    outer loop
      vertex -49.0365 -49.5734 17
      vertex -48 -51 2
      vertex -48 -51 17
    endloop
  endfacet
  facet normal 1 -0 0
    outer loop
      vertex -50.7135 -51.8817 17
      vertex -50.7135 -50.1183 2
      vertex -50.7135 -50.1183 17
    endloop
  endfacet
  facet normal 1 0 0
    outer loop
      vertex -50.7135 -50.1183 2
      vertex -50.7135 -51.8817 17
      vertex -50.7135 -51.8817 2
    endloop
  endfacet
  facet normal 0.309017 -0.951056 0
    outer loop
      vertex -50.7135 -50.1183 2
      vertex -49.0365 -49.5734 17
      vertex -50.7135 -50.1183 17
    endloop
  endfacet
  facet normal 0.309017 -0.951056 0
    outer loop
      vertex -49.0365 -49.5734 17
      vertex -50.7135 -50.1183 2
      vertex -49.0365 -49.5734 2
    endloop
  endfacet
  facet normal 0 0 1
    outer loop
      vertex -49.0365 -49.5734 2
      vertex -49.0365 -52.4266 2
      vertex -48 -51 2
    endloop
  endfacet
  facet normal -0 0 1
    outer loop
      vertex -50.7135 -50.1183 2
      vertex -49.0365 -52.4266 2
      vertex -49.0365 -49.5734 2
    endloop
  endfacet
  facet normal 0 0 1
    outer loop
      vertex -49.0365 -52.4266 2
      vertex -50.7135 -50.1183 2
      vertex -50.7135 -51.8817 2
    endloop
  endfacet
  facet normal -0.809016 0.587787 0
    outer loop
      vertex -49.0365 -52.4266 2
      vertex -48 -51 17
      vertex -48 -51 2
    endloop
  endfacet
  facet normal -0.809016 0.587787 0
    outer loop
      vertex -48 -51 17
      vertex -49.0365 -52.4266 2
      vertex -49.0365 -52.4266 17
    endloop
  endfacet
  facet normal 0.309017 0.951056 -0
    outer loop
      vertex -49.0365 -52.4266 2
      vertex -50.7135 -51.8817 17
      vertex -49.0365 -52.4266 17
    endloop
  endfacet
  facet normal 0.309017 0.951056 0
    outer loop
      vertex -50.7135 -51.8817 17
      vertex -49.0365 -52.4266 2
      vertex -50.7135 -51.8817 2
    endloop
  endfacet
  facet normal -0.809016 -0.587787 0
    outer loop
      vertex 31 47.5 2
      vertex 29.9635 48.9266 17
      vertex 29.9635 48.9266 2
    endloop
  endfacet
  facet normal -0.809016 -0.587787 0
    outer loop
      vertex 29.9635 48.9266 17
      vertex 31 47.5 2
      vertex 31 47.5 17
    endloop
  endfacet
  facet normal 1 -0 0
    outer loop
      vertex 28.2865 46.6183 17
      vertex 28.2865 48.3817 2
      vertex 28.2865 48.3817 17
    endloop
  endfacet
  facet normal 1 0 0
    outer loop
      vertex 28.2865 48.3817 2
      vertex 28.2865 46.6183 17
      vertex 28.2865 46.6183 2
    endloop
  endfacet
  facet normal 0.309017 -0.951056 0
    outer loop
      vertex 28.2865 48.3817 2
      vertex 29.9635 48.9266 17
      vertex 28.2865 48.3817 17
    endloop
  endfacet
  facet normal 0.309017 -0.951056 0
    outer loop
      vertex 29.9635 48.9266 17
      vertex 28.2865 48.3817 2
      vertex 29.9635 48.9266 2
    endloop
  endfacet
  facet normal 0 0 1
    outer loop
      vertex 29.9635 48.9266 2
      vertex 29.9635 46.0734 2
      vertex 31 47.5 2
    endloop
  endfacet
  facet normal -0 0 1
    outer loop
      vertex 28.2865 48.3817 2
      vertex 29.9635 46.0734 2
      vertex 29.9635 48.9266 2
    endloop
  endfacet
  facet normal 0 0 1
    outer loop
      vertex 29.9635 46.0734 2
      vertex 28.2865 48.3817 2
      vertex 28.2865 46.6183 2
    endloop
  endfacet
  facet normal -0.809017 0.587785 0
    outer loop
      vertex 29.9635 46.0734 2
      vertex 31 47.5 17
      vertex 31 47.5 2
    endloop
  endfacet
  facet normal -0.809017 0.587785 0
    outer loop
      vertex 31 47.5 17
      vertex 29.9635 46.0734 2
      vertex 29.9635 46.0734 17
    endloop
  endfacet
  facet normal 0.309017 0.951056 -0
    outer loop
      vertex 29.9635 46.0734 2
      vertex 28.2865 46.6183 17
      vertex 29.9635 46.0734 17
    endloop
  endfacet
  facet normal 0.309017 0.951056 0
    outer loop
      vertex 28.2865 46.6183 17
      vertex 29.9635 46.0734 2
      vertex 28.2865 46.6183 2
    endloop
  endfacet
  facet normal -0.809017 -0.587786 0
    outer loop
      vertex -28 47.5 2
      vertex -29.0365 48.9266 17
      vertex -29.0365 48.9266 2
    endloop
  endfacet
  facet normal -0.809017 -0.587786 0
    outer loop
      vertex -29.0365 48.9266 17
      vertex -28 47.5 2
      vertex -28 47.5 17
    endloop
  endfacet
  facet normal 1 -0 0
    outer loop
      vertex -30.7135 46.6183 17
      vertex -30.7135 48.3817 2
      vertex -30.7135 48.3817 17
    endloop
  endfacet
  facet normal 1 0 0
    outer loop
      vertex -30.7135 48.3817 2
      vertex -30.7135 46.6183 17
      vertex -30.7135 46.6183 2
    endloop
  endfacet
  facet normal 0.309017 -0.951056 0
    outer loop
      vertex -30.7135 48.3817 2
      vertex -29.0365 48.9266 17
      vertex -30.7135 48.3817 17
    endloop
  endfacet
  facet normal 0.309017 -0.951056 0
    outer loop
      vertex -29.0365 48.9266 17
      vertex -30.7135 48.3817 2
      vertex -29.0365 48.9266 2
    endloop
  endfacet
  facet normal 0.309017 0.951056 -0
    outer loop
      vertex -29.0365 46.0734 2
      vertex -30.7135 46.6183 17
      vertex -29.0365 46.0734 17
    endloop
  endfacet
  facet normal 0.309017 0.951056 0
    outer loop
      vertex -30.7135 46.6183 17
      vertex -29.0365 46.0734 2
      vertex -30.7135 46.6183 2
    endloop
  endfacet
  facet normal 0 0 1
    outer loop
      vertex -29.0365 48.9266 2
      vertex -29.0365 46.0734 2
      vertex -28 47.5 2
    endloop
  endfacet
  facet normal -0 0 1
    outer loop
      vertex -30.7135 48.3817 2
      vertex -29.0365 46.0734 2
      vertex -29.0365 48.9266 2
    endloop
  endfacet
  facet normal 0 0 1
    outer loop
      vertex -29.0365 46.0734 2
      vertex -30.7135 48.3817 2
      vertex -30.7135 46.6183 2
    endloop
  endfacet
  facet normal -0.809017 0.587785 0
    outer loop
      vertex -29.0365 46.0734 2
      vertex -28 47.5 17
      vertex -28 47.5 2
    endloop
  endfacet
  facet normal -0.809017 0.587785 0
    outer loop
      vertex -28 47.5 17
      vertex -29.0365 46.0734 2
      vertex -29.0365 46.0734 17
    endloop
  endfacet
  facet normal -0.809016 -0.587786 0
    outer loop
      vertex 31 3 2
      vertex 29.9635 4.42658 17
      vertex 29.9635 4.42658 2
    endloop
  endfacet
  facet normal -0.809016 -0.587786 0
    outer loop
      vertex 29.9635 4.42658 17
      vertex 31 3 2
      vertex 31 3 17
    endloop
  endfacet
  facet normal 1 -0 0
    outer loop
      vertex 28.2865 2.11832 17
      vertex 28.2865 3.88168 2
      vertex 28.2865 3.88168 17
    endloop
  endfacet
  facet normal 1 0 0
    outer loop
      vertex 28.2865 3.88168 2
      vertex 28.2865 2.11832 17
      vertex 28.2865 2.11832 2
    endloop
  endfacet
  facet normal 0.309017 -0.951056 0
    outer loop
      vertex 28.2865 3.88168 2
      vertex 29.9635 4.42658 17
      vertex 28.2865 3.88168 17
    endloop
  endfacet
  facet normal 0.309017 -0.951056 0
    outer loop
      vertex 29.9635 4.42658 17
      vertex 28.2865 3.88168 2
      vertex 29.9635 4.42658 2
    endloop
  endfacet
  facet normal 0 0 1
    outer loop
      vertex 29.9635 4.42658 2
      vertex 29.9635 1.57341 2
      vertex 31 3 2
    endloop
  endfacet
  facet normal -0 0 1
    outer loop
      vertex 28.2865 3.88168 2
      vertex 29.9635 1.57341 2
      vertex 29.9635 4.42658 2
    endloop
  endfacet
  facet normal 0 0 1
    outer loop
      vertex 29.9635 1.57341 2
      vertex 28.2865 3.88168 2
      vertex 28.2865 2.11832 2
    endloop
  endfacet
  facet normal -0.809017 0.587786 0
    outer loop
      vertex 29.9635 1.57341 2
      vertex 31 3 17
      vertex 31 3 2
    endloop
  endfacet
  facet normal -0.809017 0.587786 0
    outer loop
      vertex 31 3 17
      vertex 29.9635 1.57341 2
      vertex 29.9635 1.57341 17
    endloop
  endfacet
  facet normal 0.309017 0.951056 -0
    outer loop
      vertex 29.9635 1.57341 2
      vertex 28.2865 2.11832 17
      vertex 29.9635 1.57341 17
    endloop
  endfacet
  facet normal 0.309017 0.951056 0
    outer loop
      vertex 28.2865 2.11832 17
      vertex 29.9635 1.57341 2
      vertex 28.2865 2.11832 2
    endloop
  endfacet
  facet normal -0.809017 -0.587785 0
    outer loop
      vertex -28 3 2
      vertex -29.0365 4.42658 17
      vertex -29.0365 4.42658 2
    endloop
  endfacet
  facet normal -0.809017 -0.587785 0
    outer loop
      vertex -29.0365 4.42658 17
      vertex -28 3 2
      vertex -28 3 17
    endloop
  endfacet
  facet normal 1 -0 0
    outer loop
      vertex -30.7135 2.11832 17
      vertex -30.7135 3.88168 2
      vertex -30.7135 3.88168 17
    endloop
  endfacet
  facet normal 1 0 0
    outer loop
      vertex -30.7135 3.88168 2
      vertex -30.7135 2.11832 17
      vertex -30.7135 2.11832 2
    endloop
  endfacet
  facet normal 0.309017 -0.951056 0
    outer loop
      vertex -30.7135 3.88168 2
      vertex -29.0365 4.42658 17
      vertex -30.7135 3.88168 17
    endloop
  endfacet
  facet normal 0.309017 -0.951056 0
    outer loop
      vertex -29.0365 4.42658 17
      vertex -30.7135 3.88168 2
      vertex -29.0365 4.42658 2
    endloop
  endfacet
  facet normal 0.309017 0.951056 -0
    outer loop
      vertex -29.0365 1.57341 2
      vertex -30.7135 2.11832 17
      vertex -29.0365 1.57341 17
    endloop
  endfacet
  facet normal 0.309017 0.951056 0
    outer loop
      vertex -30.7135 2.11832 17
      vertex -29.0365 1.57341 2
      vertex -30.7135 2.11832 2
    endloop
  endfacet
  facet normal 0 0 1
    outer loop
      vertex -29.0365 4.42658 2
      vertex -29.0365 1.57341 2
      vertex -28 3 2
    endloop
  endfacet
  facet normal -0 0 1
    outer loop
      vertex -30.7135 3.88168 2
      vertex -29.0365 1.57341 2
      vertex -29.0365 4.42658 2
    endloop
  endfacet
  facet normal 0 0 1
    outer loop
      vertex -29.0365 1.57341 2
      vertex -30.7135 3.88168 2
      vertex -30.7135 2.11832 2
    endloop
  endfacet
  facet normal -0.809017 0.587785 0
    outer loop
      vertex -29.0365 1.57341 2
      vertex -28 3 17
      vertex -28 3 2
    endloop
  endfacet
  facet normal -0.809017 0.587785 0
    outer loop
      vertex -28 3 17
      vertex -29.0365 1.57341 2
      vertex -29.0365 1.57341 17
    endloop
  endfacet
  facet normal 0 -1 0
    outer loop
      vertex -24.5 48 -3
      vertex 24.5 48 17
      vertex -24.5 48 17
    endloop
  endfacet
  facet normal 0 -1 -0
    outer loop
      vertex 24.5 48 17
      vertex -24.5 48 -3
      vertex 24.5 48 -3
    endloop
  endfacet
  facet normal 1 -0 0
    outer loop
      vertex -12.5 -56 17
      vertex -12.5 -53 5
      vertex -12.5 -53 17
    endloop
  endfacet
  facet normal 1 0 0
    outer loop
      vertex -12.5 -53 5
      vertex -12.5 -56 17
      vertex -12.5 -56 5
    endloop
  endfacet
  facet normal -1 0 0
    outer loop
      vertex 12.5 -56 5
      vertex 12.5 -53 17
      vertex 12.5 -53 5
    endloop
  endfacet
  facet normal -1 -0 0
    outer loop
      vertex 12.5 -53 17
      vertex 12.5 -56 5
      vertex 12.5 -56 17
    endloop
  endfacet
  facet normal -0 0 1
    outer loop
      vertex -12.5 -53 5
      vertex 12.5 -56 5
      vertex 12.5 -53 5
    endloop
  endfacet
  facet normal 0 0 1
    outer loop
      vertex 12.5 -56 5
      vertex -12.5 -53 5
      vertex -12.5 -56 5
    endloop
  endfacet
  facet normal -0.959493 -0.281733 0
    outer loop
      vertex 38.5 -35 -3
      vertex 37.9444 -33.1078 0
      vertex 37.9444 -33.1078 -3
    endloop
  endfacet
  facet normal -0.959493 -0.281733 0
    outer loop
      vertex 37.9444 -33.1078 0
      vertex 38.5 -35 -3
      vertex 38.5 -35 0
    endloop
  endfacet
  facet normal 1 -0 0
    outer loop
      vertex 31.6418 -35.9861 0
      vertex 31.6418 -34.0139 -3
      vertex 31.6418 -34.0139 0
    endloop
  endfacet
  facet normal 1 0 0
    outer loop
      vertex 31.6418 -34.0139 -3
      vertex 31.6418 -35.9861 0
      vertex 31.6418 -35.9861 -3
    endloop
  endfacet
  facet normal 0.415413 -0.909633 0
    outer loop
      vertex 32.708 -32.3549 -3
      vertex 34.5019 -31.5356 0
      vertex 32.708 -32.3549 0
    endloop
  endfacet
  facet normal 0.415413 -0.909633 0
    outer loop
      vertex 34.5019 -31.5356 0
      vertex 32.708 -32.3549 -3
      vertex 34.5019 -31.5356 -3
    endloop
  endfacet
  facet normal 0.841254 -0.54064 0
    outer loop
      vertex 31.6418 -34.0139 0
      vertex 32.708 -32.3549 -3
      vertex 32.708 -32.3549 0
    endloop
  endfacet
  facet normal 0.841254 -0.54064 0
    outer loop
      vertex 32.708 -32.3549 -3
      vertex 31.6418 -34.0139 0
      vertex 31.6418 -34.0139 -3
    endloop
  endfacet
  facet normal -0.959493 0.281733 0
    outer loop
      vertex 37.9444 -36.8922 -3
      vertex 38.5 -35 0
      vertex 38.5 -35 -3
    endloop
  endfacet
  facet normal -0.959493 0.281733 0
    outer loop
      vertex 38.5 -35 0
      vertex 37.9444 -36.8922 -3
      vertex 37.9444 -36.8922 0
    endloop
  endfacet
  facet normal -0.142315 -0.989821 0
    outer loop
      vertex 34.5019 -31.5356 -3
      vertex 36.454 -31.8163 0
      vertex 34.5019 -31.5356 0
    endloop
  endfacet
  facet normal -0.142315 -0.989821 -0
    outer loop
      vertex 36.454 -31.8163 0
      vertex 34.5019 -31.5356 -3
      vertex 36.454 -31.8163 -3
    endloop
  endfacet
  facet normal -0.654861 -0.755749 0
    outer loop
      vertex 36.454 -31.8163 -3
      vertex 37.9444 -33.1078 0
      vertex 36.454 -31.8163 0
    endloop
  endfacet
  facet normal -0.654861 -0.755749 -0
    outer loop
      vertex 37.9444 -33.1078 0
      vertex 36.454 -31.8163 -3
      vertex 37.9444 -33.1078 -3
    endloop
  endfacet
  facet normal 0.841254 0.54064 0
    outer loop
      vertex 32.708 -37.6451 0
      vertex 31.6418 -35.9861 -3
      vertex 31.6418 -35.9861 0
    endloop
  endfacet
  facet normal 0.841254 0.54064 0
    outer loop
      vertex 31.6418 -35.9861 -3
      vertex 32.708 -37.6451 0
      vertex 32.708 -37.6451 -3
    endloop
  endfacet
  facet normal 0.415414 0.909632 -0
    outer loop
      vertex 34.5019 -38.4644 -3
      vertex 32.708 -37.6451 0
      vertex 34.5019 -38.4644 0
    endloop
  endfacet
  facet normal 0.415414 0.909632 0
    outer loop
      vertex 32.708 -37.6451 0
      vertex 34.5019 -38.4644 -3
      vertex 32.708 -37.6451 -3
    endloop
  endfacet
  facet normal -0.654861 0.755749 0
    outer loop
      vertex 37.9444 -36.8922 -3
      vertex 36.454 -38.1837 0
      vertex 37.9444 -36.8922 0
    endloop
  endfacet
  facet normal -0.654861 0.755749 0
    outer loop
      vertex 36.454 -38.1837 0
      vertex 37.9444 -36.8922 -3
      vertex 36.454 -38.1837 -3
    endloop
  endfacet
  facet normal -0.142315 0.989821 0
    outer loop
      vertex 36.454 -38.1837 -3
      vertex 34.5019 -38.4644 0
      vertex 36.454 -38.1837 0
    endloop
  endfacet
  facet normal -0.142315 0.989821 0
    outer loop
      vertex 34.5019 -38.4644 0
      vertex 36.454 -38.1837 -3
      vertex 34.5019 -38.4644 -3
    endloop
  endfacet
  facet normal 1 -0 0
    outer loop
      vertex 30 -52 0
      vertex 30 -47 -3
      vertex 30 -47 0
    endloop
  endfacet
  facet normal 1 0 0
    outer loop
      vertex 30 -47 -3
      vertex 30 -52 0
      vertex 30 -52 -3
    endloop
  endfacet
  facet normal -1 0 0
    outer loop
      vertex 40 -52 -3
      vertex 40 -47 0
      vertex 40 -47 -3
    endloop
  endfacet
  facet normal -1 -0 0
    outer loop
      vertex 40 -47 0
      vertex 40 -52 -3
      vertex 40 -52 0
    endloop
  endfacet
  facet normal 0 1 -0
    outer loop
      vertex 40 -52 -3
      vertex 30 -52 0
      vertex 40 -52 0
    endloop
  endfacet
  facet normal 0 1 0
    outer loop
      vertex 30 -52 0
      vertex 40 -52 -3
      vertex 30 -52 -3
    endloop
  endfacet
endsolid OpenSCAD_Model
