solid OpenSCAD_Model
  facet normal 1 -0 0
    outer loop
      vertex -4.75 -1.25 2.5
      vertex -4.75 1.75 -2.5
      vertex -4.75 1.75 2.5
    endloop
  endfacet
  facet normal 1 0 0
    outer loop
      vertex -4.75 1.75 -2.5
      vertex -4.75 -1.25 2.5
      vertex -4.75 -1.25 -2.5
    endloop
  endfacet
  facet normal 0 1 -0
    outer loop
      vertex 4.75 -1.25 -2.5
      vertex -4.75 -1.25 2.5
      vertex 4.75 -1.25 2.5
    endloop
  endfacet
  facet normal 0 1 0
    outer loop
      vertex -4.75 -1.25 2.5
      vertex 4.75 -1.25 -2.5
      vertex -4.75 -1.25 -2.5
    endloop
  endfacet
  facet normal -1 0 0
    outer loop
      vertex 4.75 -1.25 -2.5
      vertex 4.75 1.75 2.5
      vertex 4.75 1.75 -2.5
    endloop
  endfacet
  facet normal -1 -0 0
    outer loop
      vertex 4.75 1.75 2.5
      vertex 4.75 -1.25 -2.5
      vertex 4.75 -1.25 2.5
    endloop
  endfacet
  facet normal 0 1 -0
    outer loop
      vertex 9.5 1.75 -2.5
      vertex 4.75 1.75 2.5
      vertex 9.5 1.75 2.5
    endloop
  endfacet
  facet normal 0 1 0
    outer loop
      vertex 4.75 1.75 2.5
      vertex 9.5 1.75 -2.5
      vertex 4.75 1.75 -2.5
    endloop
  endfacet
  facet normal 0 1 -0
    outer loop
      vertex -4.75 1.75 -2.5
      vertex -7.5 1.75 2.5
      vertex -4.75 1.75 2.5
    endloop
  endfacet
  facet normal 0 1 0
    outer loop
      vertex -7.5 1.75 2.5
      vertex -4.75 1.75 -2.5
      vertex -7.5 1.75 -2.5
    endloop
  endfacet
  facet normal -1 0 0
    outer loop
      vertex -7.5 -1.75 -2.5
      vertex -7.5 1.75 2.5
      vertex -7.5 1.75 -2.5
    endloop
  endfacet
  facet normal -1 -0 0
    outer loop
      vertex -7.5 1.75 2.5
      vertex -7.5 -1.75 -2.5
      vertex -7.5 -1.75 2.5
    endloop
  endfacet
  facet normal 0 -1 0
    outer loop
      vertex 4.75 -1.75 3.88578e-16
      vertex -7.5 -1.75 2.5
      vertex -4.75 -1.75 3.88578e-16
    endloop
  endfacet
  facet normal 0 -1 0
    outer loop
      vertex -7.5 -1.75 -2.5
      vertex -4.75 -1.75 3.88578e-16
      vertex -7.5 -1.75 2.5
    endloop
  endfacet
  facet normal 0 -1 -0
    outer loop
      vertex -4.75 -1.75 3.88578e-16
      vertex -7.5 -1.75 -2.5
      vertex -4.75 -1.75 -2.5
    endloop
  endfacet
  facet normal 0 -1 0
    outer loop
      vertex -7.5 -1.75 2.5
      vertex 4.75 -1.75 3.88578e-16
      vertex 9.5 -1.75 2.5
    endloop
  endfacet
  facet normal 0 -1 0
    outer loop
      vertex 9.5 -1.75 -2.5
      vertex 4.75 -1.75 3.88578e-16
      vertex 4.75 -1.75 -2.5
    endloop
  endfacet
  facet normal 0 -1 0
    outer loop
      vertex 4.75 -1.75 3.88578e-16
      vertex 9.5 -1.75 -2.5
      vertex 9.5 -1.75 2.5
    endloop
  endfacet
  facet normal 1 -0 0
    outer loop
      vertex 9.5 -1.75 2.5
      vertex 9.5 1.75 -2.5
      vertex 9.5 1.75 2.5
    endloop
  endfacet
  facet normal 1 0 0
    outer loop
      vertex 9.5 1.75 -2.5
      vertex 9.5 -1.75 2.5
      vertex 9.5 -1.75 -2.5
    endloop
  endfacet
  facet normal 0 0 -1
    outer loop
      vertex 4.75 -1.25 -2.5
      vertex 9.5 -1.75 -2.5
      vertex 4.75 -1.75 -2.5
    endloop
  endfacet
  facet normal 0 0 -1
    outer loop
      vertex 9.5 -1.75 -2.5
      vertex 4.75 -1.25 -2.5
      vertex 9.5 1.75 -2.5
    endloop
  endfacet
  facet normal -0 0 -1
    outer loop
      vertex 9.5 1.75 -2.5
      vertex 4.75 -1.25 -2.5
      vertex 4.75 1.75 -2.5
    endloop
  endfacet
  facet normal 0 0 -1
    outer loop
      vertex -4.75 -1.75 -2.5
      vertex 4.75 -1.75 -2.5
      vertex 4.75 -4.75 -2.5
    endloop
  endfacet
  facet normal 0 0 -1
    outer loop
      vertex -4.75 -1.75 -2.5
      vertex 4.75 -4.75 -2.5
      vertex -4.75 -4.75 -2.5
    endloop
  endfacet
  facet normal 0 0 -1
    outer loop
      vertex 4.75 -1.75 -2.5
      vertex -4.75 -1.75 -2.5
      vertex 4.75 -1.25 -2.5
    endloop
  endfacet
  facet normal 0 0 -1
    outer loop
      vertex -4.75 -1.75 -2.5
      vertex -4.75 -1.25 -2.5
      vertex 4.75 -1.25 -2.5
    endloop
  endfacet
  facet normal 0 0 -1
    outer loop
      vertex -7.5 -1.75 -2.5
      vertex -4.75 -1.25 -2.5
      vertex -4.75 -1.75 -2.5
    endloop
  endfacet
  facet normal 0 0 -1
    outer loop
      vertex -7.5 1.75 -2.5
      vertex -4.75 -1.25 -2.5
      vertex -7.5 -1.75 -2.5
    endloop
  endfacet
  facet normal 0 0 -1
    outer loop
      vertex -4.75 -1.25 -2.5
      vertex -7.5 1.75 -2.5
      vertex -4.75 1.75 -2.5
    endloop
  endfacet
  facet normal 0 0 1
    outer loop
      vertex -4.75 1.75 2.5
      vertex -7.5 1.75 2.5
      vertex -4.75 -1.25 2.5
    endloop
  endfacet
  facet normal 0 0 1
    outer loop
      vertex 4.75 -1.25 2.5
      vertex 9.5 1.75 2.5
      vertex 4.75 1.75 2.5
    endloop
  endfacet
  facet normal 0 0 1
    outer loop
      vertex 9.5 1.75 2.5
      vertex 4.75 -1.25 2.5
      vertex 9.5 -1.75 2.5
    endloop
  endfacet
  facet normal 0 0 1
    outer loop
      vertex -7.5 -1.75 2.5
      vertex 4.75 -1.25 2.5
      vertex -4.75 -1.25 2.5
    endloop
  endfacet
  facet normal 0 0 1
    outer loop
      vertex 4.75 -1.25 2.5
      vertex -7.5 -1.75 2.5
      vertex 9.5 -1.75 2.5
    endloop
  endfacet
  facet normal 0 0 1
    outer loop
      vertex -7.5 -1.75 2.5
      vertex -4.75 -1.25 2.5
      vertex -7.5 1.75 2.5
    endloop
  endfacet
  facet normal -1 0 0
    outer loop
      vertex -4.75 -4.75 -2.5
      vertex -4.75 -1.75 3.88578e-16
      vertex -4.75 -1.75 -2.5
    endloop
  endfacet
  facet normal -1 -0 0
    outer loop
      vertex -4.75 -1.75 3.88578e-16
      vertex -4.75 -4.75 -2.5
      vertex -4.75 -4.75 1.05471e-15
    endloop
  endfacet
  facet normal 0 -1 0
    outer loop
      vertex -4.75 -4.75 -2.5
      vertex 4.75 -4.75 1.05471e-15
      vertex -4.75 -4.75 1.05471e-15
    endloop
  endfacet
  facet normal 0 -1 -0
    outer loop
      vertex 4.75 -4.75 1.05471e-15
      vertex -4.75 -4.75 -2.5
      vertex 4.75 -4.75 -2.5
    endloop
  endfacet
  facet normal 1 0 0
    outer loop
      vertex 4.75 -4.75 1.05471e-15
      vertex 4.75 -1.75 -2.5
      vertex 4.75 -1.75 3.88578e-16
    endloop
  endfacet
  facet normal 1 0 0
    outer loop
      vertex 4.75 -1.75 -2.5
      vertex 4.75 -4.75 1.05471e-15
      vertex 4.75 -4.75 -2.5
    endloop
  endfacet
  facet normal -0 2.22045e-16 1
    outer loop
      vertex -4.75 -1.75 3.88578e-16
      vertex 4.75 -4.75 1.05471e-15
      vertex 4.75 -1.75 3.88578e-16
    endloop
  endfacet
  facet normal 0 2.22045e-16 1
    outer loop
      vertex 4.75 -4.75 1.05471e-15
      vertex -4.75 -1.75 3.88578e-16
      vertex -4.75 -4.75 1.05471e-15
    endloop
  endfacet
endsolid OpenSCAD_Model
